<?xml version="1.0" encoding="UTF-8" standalone="no"?>
<svg xmlns:dc="http://purl.org/dc/elements/1.1/" xmlns:cc="http://creativecommons.org/ns#"
   xmlns:rdf="http://www.w3.org/1999/02/22-rdf-syntax-ns#" xmlns:svg="http://www.w3.org/2000/svg"
   xmlns="http://www.w3.org/2000/svg"
   xmlns:sodipodi="http://sodipodi.sourceforge.net/DTD/sodipodi-0.dtd"
   xmlns:inkscape="http://www.inkscape.org/namespaces/inkscape" width="8.50667in" height="11.44in"
   viewBox="0 0 1276 1716" id="svg2" version="1.1" inkscape:version="0.47pre1"
   sodipodi:docname="S21F" inkscape:output_extension="org.inkscape.output.svg.inkscape">
   <metadata id="metadata9">
      <rdf:RDF>
         <cc:Work rdf:about="">
            <dc:format>image/svg+xml</dc:format>
            <dc:type rdf:resource="http://purl.org/dc/dcmitype/StillImage"/>
            <dc:title/>
         </cc:Work>
      </rdf:RDF>
   </metadata>
   <defs id="defs7">
      <inkscape:perspective sodipodi:type="inkscape:persp3d" inkscape:vp_x="0 : 514.79999 : 1"
         inkscape:vp_y="0 : 1000 : 0" inkscape:vp_z="765.60028 : 514.79999 : 1"
         inkscape:persp3d-origin="382.80014 : 343.19999 : 1" id="perspective11"/>
   </defs>
   <sodipodi:namedview pagecolor="#ffffff" bordercolor="#666666" borderopacity="1"
      objecttolerance="10" gridtolerance="10" guidetolerance="10" inkscape:pageopacity="0"
      inkscape:pageshadow="2" inkscape:window-width="640" inkscape:window-height="483"
      id="namedview5" showgrid="false" inkscape:zoom="0.22921523" inkscape:cx="382.80014"
      inkscape:cy="514.79999" inkscape:window-x="0" inkscape:window-y="0"
      inkscape:window-maximized="0" inkscape:current-layer="svg2"/>
   <path id="Unnamed#2" fill="none" stroke="black" stroke-width="1"
      d="M 1074.00,1574.00            C 1074.00,1574.00 1061.00,1586.00 1061.00,1586.00              1061.00,1586.00 1046.00,1593.00 1046.00,1593.00              1046.00,1593.00 1030.00,1597.00 1030.00,1597.00              1030.00,1597.00 1010.00,1600.00 1010.00,1600.00              1010.00,1600.00 991.00,1593.00 991.00,1593.00              991.00,1593.00 972.00,1586.00 972.00,1586.00              972.00,1586.00 951.00,1579.00 951.00,1579.00              951.00,1579.00 932.00,1579.00 932.00,1579.00              932.00,1579.00 911.00,1582.00 911.00,1582.00              911.00,1582.00 891.00,1592.00 891.00,1592.00              891.00,1592.00 877.00,1608.00 877.00,1608.00              877.00,1608.00 864.00,1614.00 864.00,1614.00              864.00,1614.00 848.00,1614.00 848.00,1614.00              848.00,1614.00 836.00,1615.00 836.00,1615.00M 1068.00,1498.00            C 1068.00,1498.00 1073.00,1507.00 1073.00,1507.00              1073.00,1507.00 1070.00,1522.00 1070.00,1522.00              1070.00,1522.00 1063.00,1538.00 1063.00,1538.00              1063.00,1538.00 1065.00,1555.00 1065.00,1555.00              1065.00,1555.00 1070.00,1567.00 1070.00,1567.00              1070.00,1567.00 1076.00,1580.00 1076.00,1580.00              1076.00,1580.00 1084.00,1594.00 1084.00,1594.00              1084.00,1594.00 1087.00,1611.00 1087.00,1611.00              1087.00,1611.00 1084.00,1630.00 1084.00,1630.00              1084.00,1630.00 1084.00,1646.00 1084.00,1646.00              1084.00,1646.00 1092.00,1658.00 1092.00,1658.00              1092.00,1658.00 1096.00,1663.00 1096.00,1663.00M 213.00,730.00            C 213.00,730.00 218.00,752.00 218.00,752.00              218.00,752.00 225.00,769.00 225.00,769.00              225.00,769.00 229.00,788.00 229.00,788.00              229.00,788.00 226.00,806.00 226.00,806.00              226.00,806.00 220.00,818.00 220.00,818.00              220.00,818.00 215.00,832.00 215.00,832.00              215.00,832.00 212.00,847.00 212.00,847.00              212.00,847.00 211.00,866.00 211.00,866.00              211.00,866.00 217.00,884.00 217.00,884.00              217.00,884.00 226.00,900.00 226.00,900.00              226.00,900.00 229.00,921.00 229.00,921.00              229.00,921.00 236.00,938.00 236.00,938.00              236.00,938.00 246.00,955.00 246.00,955.00              246.00,955.00 260.00,972.00 260.00,972.00              260.00,972.00 267.00,984.00 267.00,984.00              267.00,984.00 268.00,1004.00 268.00,1004.00              268.00,1004.00 276.00,1019.00 276.00,1019.00              276.00,1019.00 285.00,1034.00 285.00,1034.00              285.00,1034.00 291.00,1049.00 291.00,1049.00              291.00,1049.00 291.00,1068.00 291.00,1068.00              291.00,1068.00 297.00,1081.00 297.00,1081.00              297.00,1081.00 305.00,1095.00 305.00,1095.00              305.00,1095.00 317.00,1104.00 317.00,1104.00              317.00,1104.00 326.00,1118.00 326.00,1118.00              326.00,1118.00 337.00,1129.00 337.00,1129.00              337.00,1129.00 348.00,1141.00 348.00,1141.00              348.00,1141.00 355.00,1156.00 355.00,1156.00              355.00,1156.00 363.00,1170.00 363.00,1170.00              363.00,1170.00 375.00,1181.00 375.00,1181.00              375.00,1181.00 387.00,1187.00 387.00,1187.00              387.00,1187.00 395.00,1189.00 395.00,1189.00              395.00,1189.00 407.00,1186.00 407.00,1186.00              407.00,1186.00 418.00,1186.00 418.00,1186.00              418.00,1186.00 427.00,1196.00 427.00,1196.00              427.00,1196.00 438.00,1199.00 438.00,1199.00              438.00,1199.00 450.00,1198.00 450.00,1198.00              450.00,1198.00 463.00,1190.00 463.00,1190.00              463.00,1190.00 474.00,1186.00 474.00,1186.00              474.00,1186.00 487.00,1186.00 487.00,1186.00              487.00,1186.00 498.00,1196.00 498.00,1196.00              498.00,1196.00 506.00,1209.00 506.00,1209.00              506.00,1209.00 511.00,1225.00 511.00,1225.00              511.00,1225.00 510.00,1243.00 510.00,1243.00              510.00,1243.00 507.00,1266.00 507.00,1266.00              507.00,1266.00 510.00,1284.00 510.00,1284.00              510.00,1284.00 508.00,1301.00 508.00,1301.00              508.00,1301.00 509.00,1317.00 509.00,1317.00              509.00,1317.00 519.00,1325.00 519.00,1325.00              519.00,1325.00 532.00,1331.00 532.00,1331.00              532.00,1331.00 545.00,1327.00 545.00,1327.00              545.00,1327.00 557.00,1319.00 557.00,1319.00              557.00,1319.00 571.00,1313.00 571.00,1313.00              571.00,1313.00 584.00,1302.00 584.00,1302.00              584.00,1302.00 593.00,1299.00 593.00,1299.00              593.00,1299.00 604.00,1304.00 604.00,1304.00              604.00,1304.00 615.00,1310.00 615.00,1310.00              615.00,1310.00 625.00,1322.00 625.00,1322.00              625.00,1322.00 636.00,1332.00 636.00,1332.00              636.00,1332.00 650.00,1343.00 650.00,1343.00              650.00,1343.00 663.00,1352.00 663.00,1352.00              663.00,1352.00 673.00,1359.00 673.00,1359.00              673.00,1359.00 684.00,1367.00 684.00,1367.00              684.00,1367.00 698.00,1371.00 698.00,1371.00              698.00,1371.00 713.00,1372.00 713.00,1372.00              713.00,1372.00 723.00,1368.00 723.00,1368.00              723.00,1368.00 735.00,1370.00 735.00,1370.00              735.00,1370.00 750.00,1375.00 750.00,1375.00              750.00,1375.00 763.00,1382.00 763.00,1382.00              763.00,1382.00 773.00,1382.00 773.00,1382.00              773.00,1382.00 791.00,1381.00 791.00,1381.00              791.00,1381.00 801.00,1381.00 801.00,1381.00              801.00,1381.00 816.00,1391.00 816.00,1391.00              816.00,1391.00 830.00,1396.00 830.00,1396.00              830.00,1396.00 844.00,1398.00 844.00,1398.00              844.00,1398.00 859.00,1393.00 859.00,1393.00              859.00,1393.00 871.00,1392.00 871.00,1392.00              871.00,1392.00 884.00,1398.00 884.00,1398.00              884.00,1398.00 896.00,1406.00 896.00,1406.00              896.00,1406.00 908.00,1412.00 908.00,1412.00              908.00,1412.00 923.00,1414.00 923.00,1414.00              923.00,1414.00 940.00,1416.00 940.00,1416.00              940.00,1416.00 956.00,1419.00 956.00,1419.00              956.00,1419.00 971.00,1425.00 971.00,1425.00              971.00,1425.00 984.00,1436.00 984.00,1436.00              984.00,1436.00 996.00,1455.00 996.00,1455.00              996.00,1455.00 1010.00,1469.00 1010.00,1469.00              1010.00,1469.00 1022.00,1480.00 1022.00,1480.00              1022.00,1480.00 1034.00,1490.00 1034.00,1490.00              1034.00,1490.00 1045.00,1497.00 1045.00,1497.00              1045.00,1497.00 1057.00,1500.00 1057.00,1500.00              1057.00,1500.00 1069.00,1498.00 1069.00,1498.00              1069.00,1498.00 1078.00,1492.00 1078.00,1492.00              1078.00,1492.00 1085.00,1481.00 1085.00,1481.00              1085.00,1481.00 1077.00,1466.00 1077.00,1466.00              1077.00,1466.00 1069.00,1448.00 1069.00,1448.00              1069.00,1448.00 1068.00,1436.00 1068.00,1436.00              1068.00,1436.00 1065.00,1422.00 1065.00,1422.00              1065.00,1422.00 1062.00,1406.00 1062.00,1406.00              1062.00,1406.00 1066.00,1392.00 1066.00,1392.00              1066.00,1392.00 1071.00,1378.00 1071.00,1378.00              1071.00,1378.00 1080.00,1365.00 1080.00,1365.00              1080.00,1365.00 1089.00,1356.00 1089.00,1356.00              1089.00,1356.00 1089.00,1341.00 1089.00,1341.00              1089.00,1341.00 1082.00,1330.00 1082.00,1330.00              1082.00,1330.00 1076.00,1311.00 1076.00,1311.00              1076.00,1311.00 1070.00,1293.00 1070.00,1293.00              1070.00,1293.00 1067.00,1273.00 1067.00,1273.00              1067.00,1273.00 1063.00,1256.00 1063.00,1256.00              1063.00,1256.00 1056.00,1240.00 1056.00,1240.00              1056.00,1240.00 1054.00,1220.00 1054.00,1220.00              1054.00,1220.00 1059.00,1200.00 1059.00,1200.00              1059.00,1200.00 1063.00,1181.00 1063.00,1181.00              1063.00,1181.00 1064.00,1163.00 1064.00,1163.00              1064.00,1163.00 1065.00,1141.00 1065.00,1141.00              1065.00,1141.00 1070.00,1119.00 1070.00,1119.00              1070.00,1119.00 1074.00,1099.00 1074.00,1099.00              1074.00,1099.00 1080.00,1079.00 1080.00,1079.00              1080.00,1079.00 1086.00,1061.00 1086.00,1061.00              1086.00,1061.00 1091.00,1049.00 1091.00,1049.00              1091.00,1049.00 1088.00,1032.00 1088.00,1032.00              1088.00,1032.00 1084.00,1018.00 1084.00,1018.00              1084.00,1018.00 1078.00,1004.00 1078.00,1004.00              1078.00,1004.00 1072.00,984.00 1072.00,984.00              1072.00,984.00 1075.00,966.00 1075.00,966.00              1075.00,966.00 1077.00,951.00 1077.00,951.00              1077.00,951.00 1074.00,934.00 1074.00,934.00              1074.00,934.00 1070.00,918.00 1070.00,918.00              1070.00,918.00 1075.00,903.00 1075.00,903.00              1075.00,903.00 1081.00,886.00 1081.00,886.00              1081.00,886.00 1081.00,868.00 1081.00,868.00              1081.00,868.00 1075.00,850.00 1075.00,850.00              1075.00,850.00 1071.00,829.00 1071.00,829.00              1071.00,829.00 1068.00,809.00 1068.00,809.00              1068.00,809.00 1062.00,795.00 1062.00,795.00              1062.00,795.00 1057.00,779.00 1057.00,779.00              1057.00,779.00 1055.00,757.00 1055.00,757.00              1055.00,757.00 1059.00,743.00 1059.00,743.00              1059.00,743.00 1066.00,734.00 1066.00,734.00              1066.00,734.00 1060.00,725.00 1060.00,725.00              1060.00,725.00 1051.00,719.00 1051.00,719.00              1051.00,719.00 1048.00,707.00 1048.00,707.00              1048.00,707.00 1050.00,693.00 1050.00,693.00              1050.00,693.00 1049.00,673.00 1049.00,673.00              1049.00,673.00 1048.00,653.00 1048.00,653.00              1048.00,653.00 1050.00,635.00 1050.00,635.00              1050.00,635.00 1057.00,620.00 1057.00,620.00              1057.00,620.00 1069.00,613.00 1069.00,613.00              1069.00,613.00 1081.00,607.00 1081.00,607.00              1081.00,607.00 1087.00,593.00 1087.00,593.00              1087.00,593.00 1087.00,575.00 1087.00,575.00              1087.00,575.00 1080.00,558.00 1080.00,558.00              1080.00,558.00 1066.00,538.00 1066.00,538.00              1066.00,538.00 1057.00,521.00 1057.00,521.00              1057.00,521.00 1048.00,505.00 1048.00,505.00              1048.00,505.00 1040.00,488.00 1040.00,488.00              1040.00,488.00 1036.00,470.00 1036.00,470.00              1036.00,470.00 1039.00,451.00 1039.00,451.00              1039.00,451.00 1051.00,432.00 1051.00,432.00              1051.00,432.00 1066.00,418.00 1066.00,418.00              1066.00,418.00 1079.00,403.00 1079.00,403.00              1079.00,403.00 1090.00,390.00 1090.00,390.00              1090.00,390.00 1091.00,377.00 1091.00,377.00              1091.00,377.00 1091.00,357.00 1091.00,357.00              1091.00,357.00 1099.00,341.00 1099.00,341.00              1099.00,341.00 1103.00,325.00 1103.00,325.00              1103.00,325.00 1103.00,305.00 1103.00,305.00              1103.00,305.00 1097.00,290.00 1097.00,290.00              1097.00,290.00 1084.00,279.00 1084.00,279.00              1084.00,279.00 1071.00,271.00 1071.00,271.00              1071.00,271.00 1059.00,258.00 1059.00,258.00              1059.00,258.00 1055.00,241.00 1055.00,241.00              1055.00,241.00 1059.00,221.00 1059.00,221.00              1059.00,221.00 1059.00,200.00 1059.00,200.00              1059.00,200.00 1062.00,187.00 1062.00,187.00              1062.00,187.00 1080.00,172.00 1080.00,172.00"
   />
</svg>
