<?xml version="1.0" encoding="UTF-8" standalone="no"?>
<svg
   xmlns:dc="http://purl.org/dc/elements/1.1/"
   xmlns:cc="http://creativecommons.org/ns#"
   xmlns:rdf="http://www.w3.org/1999/02/22-rdf-syntax-ns#"
   xmlns:svg="http://www.w3.org/2000/svg"
   xmlns="http://www.w3.org/2000/svg"
   xmlns:sodipodi="http://sodipodi.sourceforge.net/DTD/sodipodi-0.dtd"
   xmlns:inkscape="http://www.inkscape.org/namespaces/inkscape"
   width="8.50667in"
   height="11.46in"
   viewBox="0 0 1276 1719"
   id="svg2"
   version="1.1"
   inkscape:version="0.47pre1"
   sodipodi:docname="S24F"
   inkscape:output_extension="org.inkscape.output.svg.inkscape">
  <metadata
     id="metadata9">
    <rdf:RDF>
      <cc:Work
         rdf:about="">
        <dc:format>image/svg+xml</dc:format>
        <dc:type
           rdf:resource="http://purl.org/dc/dcmitype/StillImage" />
        <dc:title></dc:title>
      </cc:Work>
    </rdf:RDF>
  </metadata>
  <defs
     id="defs7">
    <inkscape:perspective
       sodipodi:type="inkscape:persp3d"
       inkscape:vp_x="0 : 515.70001 : 1"
       inkscape:vp_y="0 : 1000 : 0"
       inkscape:vp_z="765.60028 : 515.70001 : 1"
       inkscape:persp3d-origin="382.80014 : 343.80001 : 1"
       id="perspective11" />
  </defs>
  <sodipodi:namedview
     pagecolor="#ffffff"
     bordercolor="#666666"
     borderopacity="1"
     objecttolerance="10"
     gridtolerance="10"
     guidetolerance="10"
     inkscape:pageopacity="0"
     inkscape:pageshadow="2"
     inkscape:window-width="640"
     inkscape:window-height="483"
     id="namedview5"
     showgrid="false"
     inkscape:zoom="0.2288152"
     inkscape:cx="382.80014"
     inkscape:cy="515.70001"
     inkscape:window-x="0"
     inkscape:window-y="0"
     inkscape:window-maximized="0"
     inkscape:current-layer="svg2" />
  <path
     id="Unnamed#12"
     fill="none"
     stroke="black"
     stroke-width="1"
     d="M 236.00,367.00            C 236.00,367.00 219.00,370.00 219.00,370.00              219.00,370.00 216.00,382.00 216.00,382.00              216.00,382.00 211.00,393.00 211.00,393.00              211.00,393.00 203.00,400.00 203.00,400.00              203.00,400.00 194.00,405.00 194.00,405.00M 448.00,480.00            C 448.00,480.00 459.00,481.00 459.00,481.00              459.00,481.00 470.00,480.00 470.00,480.00              470.00,480.00 483.00,480.00 483.00,480.00              483.00,480.00 491.00,473.00 491.00,473.00              491.00,473.00 499.00,467.00 499.00,467.00              499.00,467.00 507.00,461.00 507.00,461.00              507.00,461.00 516.00,461.00 516.00,461.00M 497.00,727.00            C 497.00,727.00 490.00,713.00 490.00,713.00              490.00,713.00 497.00,701.00 497.00,701.00              497.00,701.00 501.00,686.00 501.00,686.00              501.00,686.00 505.00,671.00 505.00,671.00              505.00,671.00 498.00,656.00 498.00,656.00              498.00,656.00 491.00,639.00 491.00,639.00              491.00,639.00 490.00,623.00 490.00,623.00              490.00,623.00 485.00,607.00 485.00,607.00              485.00,607.00 477.00,597.00 477.00,597.00              477.00,597.00 467.00,584.00 467.00,584.00              467.00,584.00 451.00,580.00 451.00,580.00              451.00,580.00 436.00,582.00 436.00,582.00              436.00,582.00 425.00,573.00 425.00,573.00              425.00,573.00 421.00,559.00 421.00,559.00              421.00,559.00 424.00,543.00 424.00,543.00              424.00,543.00 435.00,528.00 435.00,528.00              435.00,528.00 438.00,508.00 438.00,508.00              438.00,508.00 444.00,491.00 444.00,491.00              444.00,491.00 449.00,481.00 449.00,481.00              449.00,481.00 435.00,474.00 435.00,474.00              435.00,474.00 426.00,464.00 426.00,464.00              426.00,464.00 409.00,453.00 409.00,453.00              409.00,453.00 390.00,449.00 390.00,449.00              390.00,449.00 373.00,437.00 373.00,437.00              373.00,437.00 363.00,423.00 363.00,423.00              363.00,423.00 349.00,412.00 349.00,412.00              349.00,412.00 335.00,411.00 335.00,411.00              335.00,411.00 320.00,407.00 320.00,407.00              320.00,407.00 306.00,410.00 306.00,410.00              306.00,410.00 289.00,405.00 289.00,405.00              289.00,405.00 273.00,393.00 273.00,393.00              273.00,393.00 257.00,388.00 257.00,388.00              257.00,388.00 242.00,379.00 242.00,379.00              242.00,379.00 237.00,369.00 237.00,369.00              237.00,369.00 231.00,359.00 231.00,359.00              231.00,359.00 231.00,343.00 231.00,343.00              231.00,343.00 236.00,329.00 236.00,329.00              236.00,329.00 242.00,320.00 242.00,320.00              242.00,320.00 251.00,317.00 251.00,317.00              251.00,317.00 260.00,320.00 260.00,320.00              260.00,320.00 268.00,326.00 268.00,326.00              268.00,326.00 272.00,338.00 272.00,338.00              272.00,338.00 274.00,349.00 274.00,349.00M 521.00,758.00            C 521.00,758.00 511.00,764.00 511.00,764.00              511.00,764.00 500.00,765.00 500.00,765.00M 477.00,1067.00            C 477.00,1067.00 490.00,1070.00 490.00,1070.00              490.00,1070.00 502.00,1076.00 502.00,1076.00              502.00,1076.00 509.00,1088.00 509.00,1088.00              509.00,1088.00 512.00,1100.00 512.00,1100.00M 902.00,782.00            C 902.00,782.00 891.00,785.00 891.00,785.00              891.00,785.00 882.00,792.00 882.00,792.00M 919.00,791.00            C 919.00,791.00 918.00,801.00 918.00,801.00              918.00,801.00 924.00,811.00 924.00,811.00M 924.00,775.00            C 924.00,775.00 934.00,775.00 934.00,775.00              934.00,775.00 946.00,775.00 946.00,775.00M 915.00,744.00            C 915.00,744.00 922.00,751.00 922.00,751.00              922.00,751.00 925.00,764.00 925.00,764.00              925.00,764.00 927.00,773.00 927.00,773.00              927.00,773.00 925.00,783.00 925.00,783.00              925.00,783.00 918.00,791.00 918.00,791.00              918.00,791.00 906.00,791.00 906.00,791.00              906.00,791.00 901.00,780.00 901.00,780.00              901.00,780.00 905.00,770.00 905.00,770.00              905.00,770.00 895.00,762.00 895.00,762.00              895.00,762.00 884.00,755.00 884.00,755.00M 965.00,660.00            C 965.00,660.00 976.00,660.00 976.00,660.00              976.00,660.00 979.00,667.00 979.00,667.00              979.00,667.00 986.00,667.00 986.00,667.00              986.00,667.00 996.00,665.00 996.00,665.00              996.00,665.00 1005.00,663.00 1005.00,663.00              1005.00,663.00 1015.00,655.00 1015.00,655.00              1015.00,655.00 1026.00,649.00 1026.00,649.00              1026.00,649.00 1031.00,641.00 1031.00,641.00M 1028.00,550.00            C 1028.00,550.00 1036.00,556.00 1036.00,556.00              1036.00,556.00 1044.00,556.00 1044.00,556.00              1044.00,556.00 1050.00,556.00 1050.00,556.00M 1036.00,490.00            C 1036.00,490.00 1045.00,493.00 1045.00,493.00              1045.00,493.00 1056.00,493.00 1056.00,493.00              1056.00,493.00 1067.00,489.00 1067.00,489.00              1067.00,489.00 1076.00,481.00 1076.00,481.00              1076.00,481.00 1080.00,469.00 1080.00,469.00              1080.00,469.00 1074.00,455.00 1074.00,455.00              1074.00,455.00 1068.00,445.00 1068.00,445.00M 451.00,1160.00            C 451.00,1160.00 453.00,1145.00 453.00,1145.00              453.00,1145.00 449.00,1126.00 449.00,1126.00              449.00,1126.00 448.00,1113.00 448.00,1113.00              448.00,1113.00 452.00,1099.00 452.00,1099.00              452.00,1099.00 460.00,1084.00 460.00,1084.00              460.00,1084.00 470.00,1080.00 470.00,1080.00              470.00,1080.00 478.00,1067.00 478.00,1067.00              478.00,1067.00 484.00,1053.00 484.00,1053.00              484.00,1053.00 491.00,1042.00 491.00,1042.00              491.00,1042.00 488.00,1028.00 488.00,1028.00              488.00,1028.00 483.00,1013.00 483.00,1013.00              483.00,1013.00 483.00,996.00 483.00,996.00              483.00,996.00 490.00,985.00 490.00,985.00              490.00,985.00 502.00,976.00 502.00,976.00              502.00,976.00 510.00,965.00 510.00,965.00              510.00,965.00 513.00,947.00 513.00,947.00              513.00,947.00 509.00,929.00 509.00,929.00              509.00,929.00 506.00,913.00 506.00,913.00              506.00,913.00 511.00,896.00 511.00,896.00              511.00,896.00 520.00,884.00 520.00,884.00              520.00,884.00 533.00,876.00 533.00,876.00              533.00,876.00 542.00,864.00 542.00,864.00              542.00,864.00 541.00,848.00 541.00,848.00              541.00,848.00 533.00,833.00 533.00,833.00              533.00,833.00 526.00,817.00 526.00,817.00              526.00,817.00 521.00,806.00 521.00,806.00              521.00,806.00 528.00,791.00 528.00,791.00              528.00,791.00 536.00,782.00 536.00,782.00              536.00,782.00 541.00,768.00 541.00,768.00              541.00,768.00 533.00,763.00 533.00,763.00              533.00,763.00 521.00,759.00 521.00,759.00              521.00,759.00 513.00,748.00 513.00,748.00              513.00,748.00 504.00,739.00 504.00,739.00              504.00,739.00 496.00,728.00 496.00,728.00              496.00,728.00 509.00,723.00 509.00,723.00              509.00,723.00 521.00,718.00 521.00,718.00              521.00,718.00 532.00,711.00 532.00,711.00              532.00,711.00 546.00,701.00 546.00,701.00              546.00,701.00 554.00,691.00 554.00,691.00              554.00,691.00 567.00,685.00 567.00,685.00              567.00,685.00 581.00,680.00 581.00,680.00              581.00,680.00 593.00,666.00 593.00,666.00              593.00,666.00 599.00,655.00 599.00,655.00              599.00,655.00 608.00,644.00 608.00,644.00              608.00,644.00 619.00,646.00 619.00,646.00              619.00,646.00 632.00,643.00 632.00,643.00              632.00,643.00 643.00,638.00 643.00,638.00              643.00,638.00 653.00,621.00 653.00,621.00              653.00,621.00 662.00,607.00 662.00,607.00              662.00,607.00 669.00,599.00 669.00,599.00              669.00,599.00 681.00,601.00 681.00,601.00              681.00,601.00 694.00,600.00 694.00,600.00              694.00,600.00 705.00,599.00 705.00,599.00              705.00,599.00 716.00,603.00 716.00,603.00              716.00,603.00 723.00,613.00 723.00,613.00              723.00,613.00 732.00,625.00 732.00,625.00              732.00,625.00 743.00,632.00 743.00,632.00              743.00,632.00 755.00,641.00 755.00,641.00              755.00,641.00 768.00,649.00 768.00,649.00              768.00,649.00 779.00,651.00 779.00,651.00              779.00,651.00 793.00,655.00 793.00,655.00              793.00,655.00 805.00,656.00 805.00,656.00              805.00,656.00 815.00,664.00 815.00,664.00              815.00,664.00 818.00,678.00 818.00,678.00              818.00,678.00 823.00,689.00 823.00,689.00              823.00,689.00 834.00,690.00 834.00,690.00              834.00,690.00 847.00,688.00 847.00,688.00              847.00,688.00 860.00,691.00 860.00,691.00              860.00,691.00 869.00,700.00 869.00,700.00              869.00,700.00 876.00,713.00 876.00,713.00              876.00,713.00 879.00,723.00 879.00,723.00              879.00,723.00 888.00,731.00 888.00,731.00              888.00,731.00 894.00,742.00 894.00,742.00              894.00,742.00 901.00,749.00 901.00,749.00              901.00,749.00 909.00,751.00 909.00,751.00              909.00,751.00 915.00,743.00 915.00,743.00              915.00,743.00 913.00,729.00 913.00,729.00              913.00,729.00 915.00,716.00 915.00,716.00              915.00,716.00 924.00,708.00 924.00,708.00              924.00,708.00 934.00,705.00 934.00,705.00              934.00,705.00 945.00,696.00 945.00,696.00              945.00,696.00 955.00,686.00 955.00,686.00              955.00,686.00 964.00,676.00 964.00,676.00              964.00,676.00 966.00,661.00 966.00,661.00              966.00,661.00 957.00,663.00 957.00,663.00              957.00,663.00 940.00,652.00 940.00,652.00              940.00,652.00 928.00,641.00 928.00,641.00              928.00,641.00 918.00,623.00 918.00,623.00              918.00,623.00 922.00,608.00 922.00,608.00              922.00,608.00 934.00,603.00 934.00,603.00              934.00,603.00 948.00,601.00 948.00,601.00              948.00,601.00 959.00,597.00 959.00,597.00              959.00,597.00 974.00,593.00 974.00,593.00              974.00,593.00 988.00,588.00 988.00,588.00              988.00,588.00 998.00,582.00 998.00,582.00              998.00,582.00 1007.00,579.00 1007.00,579.00              1007.00,579.00 1018.00,572.00 1018.00,572.00              1018.00,572.00 1027.00,558.00 1027.00,558.00              1027.00,558.00 1029.00,546.00 1029.00,546.00              1029.00,546.00 1025.00,534.00 1025.00,534.00              1025.00,534.00 1028.00,521.00 1028.00,521.00              1028.00,521.00 1034.00,505.00 1034.00,505.00              1034.00,505.00 1036.00,491.00 1036.00,491.00              1036.00,491.00 1025.00,483.00 1025.00,483.00              1025.00,483.00 1014.00,470.00 1014.00,470.00              1014.00,470.00 1006.00,456.00 1006.00,456.00              1006.00,456.00 997.00,445.00 997.00,445.00              997.00,445.00 987.00,433.00 987.00,433.00              987.00,433.00 973.00,425.00 973.00,425.00              973.00,425.00 961.00,416.00 961.00,416.00              961.00,416.00 952.00,402.00 952.00,402.00              952.00,402.00 946.00,389.00 946.00,389.00              946.00,389.00 946.00,376.00 946.00,376.00              946.00,376.00 944.00,356.00 944.00,356.00              944.00,356.00 947.00,339.00 947.00,339.00              947.00,339.00 947.00,322.00 947.00,322.00              947.00,322.00 944.00,307.00 944.00,307.00              944.00,307.00 940.00,294.00 940.00,294.00              940.00,294.00 931.00,280.00 931.00,280.00" />
</svg>
