<?xml version="1.0" encoding="UTF-8" standalone="no"?>
<svg
   xmlns:dc="http://purl.org/dc/elements/1.1/"
   xmlns:cc="http://creativecommons.org/ns#"
   xmlns:rdf="http://www.w3.org/1999/02/22-rdf-syntax-ns#"
   xmlns:svg="http://www.w3.org/2000/svg"
   xmlns="http://www.w3.org/2000/svg"
   xmlns:sodipodi="http://sodipodi.sourceforge.net/DTD/sodipodi-0.dtd"
   xmlns:inkscape="http://www.inkscape.org/namespaces/inkscape"
   width="8.24in"
   height="11.66in"
   viewBox="0 0 824 1166"
   id="svg2"
   version="1.1"
   inkscape:version="0.47pre1"
   sodipodi:docname="S32F"
   inkscape:output_extension="org.inkscape.output.svg.inkscape">
  <metadata
     id="metadata9">
    <rdf:RDF>
      <cc:Work
         rdf:about="">
        <dc:format>image/svg+xml</dc:format>
        <dc:type
           rdf:resource="http://purl.org/dc/dcmitype/StillImage" />
        <dc:title></dc:title>
      </cc:Work>
    </rdf:RDF>
  </metadata>
  <defs
     id="defs7">
    <inkscape:perspective
       sodipodi:type="inkscape:persp3d"
       inkscape:vp_x="0 : 524.70001 : 1"
       inkscape:vp_y="0 : 1000 : 0"
       inkscape:vp_z="741.59998 : 524.70001 : 1"
       inkscape:persp3d-origin="370.79999 : 349.80001 : 1"
       id="perspective11" />
  </defs>
  <sodipodi:namedview
     pagecolor="#ffffff"
     bordercolor="#666666"
     borderopacity="1"
     objecttolerance="10"
     gridtolerance="10"
     guidetolerance="10"
     inkscape:pageopacity="0"
     inkscape:pageshadow="2"
     inkscape:window-width="640"
     inkscape:window-height="483"
     id="namedview5"
     showgrid="false"
     inkscape:zoom="0.22489041"
     inkscape:cx="370.79999"
     inkscape:cy="524.70001"
     inkscape:window-x="0"
     inkscape:window-y="0"
     inkscape:window-maximized="0"
     inkscape:current-layer="svg2" />
  <path
     id="Unnamed"
     fill="none"
     stroke="black"
     stroke-width="1"
     d="M 406.00,652.67            C 406.00,652.67 406.00,644.67 406.00,644.67              406.00,644.67 406.00,636.67 406.00,636.67              406.00,636.67 409.33,630.67 409.33,630.67              409.33,630.67 416.00,626.00 416.00,626.00              416.00,626.00 423.33,620.67 423.33,620.67              423.33,620.67 430.67,615.33 430.67,615.33              430.67,615.33 437.33,607.33 437.33,607.33              437.33,607.33 442.67,600.67 442.67,600.67              442.67,600.67 447.33,592.67 447.33,592.67              447.33,592.67 452.67,582.67 452.67,582.67              452.67,582.67 455.33,571.33 455.33,571.33              455.33,571.33 458.00,560.67 458.00,560.67              458.00,560.67 458.67,549.33 458.67,549.33              458.67,549.33 456.00,534.00 456.00,534.00              456.00,534.00 454.67,522.67 454.67,522.67              454.67,522.67 452.67,514.67 452.67,514.67              452.67,514.67 444.00,508.00 444.00,508.00              444.00,508.00 435.33,502.00 435.33,502.00              435.33,502.00 428.67,496.00 428.67,496.00              428.67,496.00 421.33,489.33 421.33,489.33              421.33,489.33 412.67,484.00 412.67,484.00              412.67,484.00 405.33,476.67 405.33,476.67              405.33,476.67 410.00,472.00 410.00,472.00              410.00,472.00 414.67,467.33 414.67,467.33              414.67,467.33 420.00,461.33 420.00,461.33              420.00,461.33 426.67,458.00 426.67,458.00              426.67,458.00 433.33,450.00 433.33,450.00              433.33,450.00 439.33,442.67 439.33,442.67              439.33,442.67 442.67,434.00 442.67,434.00              442.67,434.00 442.67,424.00 442.67,424.00              442.67,424.00 438.67,416.00 438.67,416.00              438.67,416.00 436.67,407.33 436.67,407.33              436.67,407.33 438.67,398.00 438.67,398.00              438.67,398.00 442.00,388.00 442.00,388.00              442.00,388.00 446.67,381.33 446.67,381.33              446.67,381.33 454.00,376.00 454.00,376.00              454.00,376.00 460.00,374.00 460.00,374.00              460.00,374.00 468.67,372.00 468.67,372.00              468.67,372.00 476.67,372.67 476.67,372.67              476.67,372.67 484.67,374.00 484.67,374.00              484.67,374.00 492.67,376.67 492.67,376.67              492.67,376.67 500.67,380.67 500.67,380.67              500.67,380.67 507.33,384.67 507.33,384.67              507.33,384.67 514.00,388.67 514.00,388.67              514.00,388.67 524.67,391.33 524.67,391.33              524.67,391.33 532.67,391.33 532.67,391.33              532.67,391.33 540.67,388.67 540.67,388.67              540.67,388.67 547.33,390.00 547.33,390.00              547.33,390.00 554.00,391.33 554.00,391.33              554.00,391.33 559.33,398.00 559.33,398.00              559.33,398.00 566.67,402.67 566.67,402.67              566.67,402.67 574.67,408.00 574.67,408.00              574.67,408.00 584.00,413.33 584.00,413.33              584.00,413.33 593.33,420.00 593.33,420.00              593.33,420.00 604.00,423.33 604.00,423.33              604.00,423.33 612.67,428.00 612.67,428.00              612.67,428.00 622.67,432.67 622.67,432.67              622.67,432.67 630.67,435.33 630.67,435.33              630.67,435.33 639.33,435.33 639.33,435.33" />
</svg>
