<?xml version="1.0" encoding="UTF-8" standalone="no"?>
<svg xmlns:dc="http://purl.org/dc/elements/1.1/" xmlns:cc="http://creativecommons.org/ns#"
   xmlns:rdf="http://www.w3.org/1999/02/22-rdf-syntax-ns#" xmlns:svg="http://www.w3.org/2000/svg"
   xmlns="http://www.w3.org/2000/svg"
   xmlns:sodipodi="http://sodipodi.sourceforge.net/DTD/sodipodi-0.dtd"
   xmlns:inkscape="http://www.inkscape.org/namespaces/inkscape" width="8.50667in" height="11.4467in"
   viewBox="0 0 1276 1717" id="svg2" version="1.1" inkscape:version="0.47pre1"
   sodipodi:docname="Z11F" inkscape:output_extension="org.inkscape.output.svg.inkscape">
   <metadata id="metadata9">
      <rdf:RDF>
         <cc:Work rdf:about="">
            <dc:format>image/svg+xml</dc:format>
            <dc:type rdf:resource="http://purl.org/dc/dcmitype/StillImage"/>
            <dc:title/>
         </cc:Work>
      </rdf:RDF>
   </metadata>
   <defs id="defs7">
      <inkscape:perspective sodipodi:type="inkscape:persp3d" inkscape:vp_x="0 : 515.1015 : 1"
         inkscape:vp_y="0 : 1000 : 0" inkscape:vp_z="765.60028 : 515.1015 : 1"
         inkscape:persp3d-origin="382.80014 : 343.401 : 1" id="perspective11"/>
   </defs>
   <sodipodi:namedview pagecolor="#ffffff" bordercolor="#666666" borderopacity="1"
      objecttolerance="10" gridtolerance="10" guidetolerance="10" inkscape:pageopacity="0"
      inkscape:pageshadow="2" inkscape:window-width="640" inkscape:window-height="483"
      id="namedview5" showgrid="false" inkscape:zoom="0.22908106" inkscape:cx="382.80014"
      inkscape:cy="515.1015" inkscape:window-x="0" inkscape:window-y="0"
      inkscape:window-maximized="0" inkscape:current-layer="svg2"/>
   <path id="Unnamed#2" fill="none" stroke="black" stroke-width="1"
      d="M 904.00,1512.00            C 904.00,1512.00 919.00,1512.00 919.00,1512.00              919.00,1512.00 933.00,1514.00 933.00,1514.00              933.00,1514.00 946.00,1519.00 946.00,1519.00              946.00,1519.00 955.00,1528.00 955.00,1528.00M 819.00,442.00            C 819.00,442.00 807.00,431.00 807.00,431.00              807.00,431.00 794.00,425.00 794.00,425.00              794.00,425.00 783.00,417.00 783.00,417.00M 843.00,1546.00            C 843.00,1546.00 856.00,1546.00 856.00,1546.00              856.00,1546.00 866.00,1541.00 866.00,1541.00              866.00,1541.00 875.00,1530.00 875.00,1530.00              875.00,1530.00 883.00,1522.00 883.00,1522.00              883.00,1522.00 891.00,1515.00 891.00,1515.00              891.00,1515.00 902.00,1513.00 902.00,1513.00              902.00,1513.00 890.00,1505.00 890.00,1505.00              890.00,1505.00 873.00,1500.00 873.00,1500.00              873.00,1500.00 858.00,1491.00 858.00,1491.00              858.00,1491.00 844.00,1478.00 844.00,1478.00              844.00,1478.00 831.00,1468.00 831.00,1468.00              831.00,1468.00 821.00,1455.00 821.00,1455.00              821.00,1455.00 815.00,1440.00 815.00,1440.00              815.00,1440.00 810.00,1423.00 810.00,1423.00              810.00,1423.00 805.00,1405.00 805.00,1405.00              805.00,1405.00 808.00,1390.00 808.00,1390.00              808.00,1390.00 808.00,1375.00 808.00,1375.00              808.00,1375.00 811.00,1363.00 811.00,1363.00              811.00,1363.00 815.00,1350.00 815.00,1350.00              815.00,1350.00 821.00,1334.00 821.00,1334.00              821.00,1334.00 831.00,1322.00 831.00,1322.00              831.00,1322.00 843.00,1310.00 843.00,1310.00              843.00,1310.00 855.00,1308.00 855.00,1308.00              855.00,1308.00 866.00,1304.00 866.00,1304.00              866.00,1304.00 879.00,1297.00 879.00,1297.00              879.00,1297.00 889.00,1288.00 889.00,1288.00              889.00,1288.00 901.00,1278.00 901.00,1278.00              901.00,1278.00 911.00,1267.00 911.00,1267.00              911.00,1267.00 929.00,1260.00 929.00,1260.00              929.00,1260.00 945.00,1253.00 945.00,1253.00              945.00,1253.00 955.00,1250.00 955.00,1250.00              955.00,1250.00 961.00,1239.00 961.00,1239.00              961.00,1239.00 961.00,1227.00 961.00,1227.00              961.00,1227.00 956.00,1215.00 956.00,1215.00              956.00,1215.00 951.00,1205.00 951.00,1205.00              951.00,1205.00 949.00,1192.00 949.00,1192.00              949.00,1192.00 953.00,1180.00 953.00,1180.00              953.00,1180.00 955.00,1168.00 955.00,1168.00              955.00,1168.00 958.00,1152.00 958.00,1152.00              958.00,1152.00 962.00,1139.00 962.00,1139.00              962.00,1139.00 963.00,1124.00 963.00,1124.00              963.00,1124.00 958.00,1108.00 958.00,1108.00              958.00,1108.00 951.00,1093.00 951.00,1093.00              951.00,1093.00 943.00,1079.00 943.00,1079.00              943.00,1079.00 938.00,1063.00 938.00,1063.00              938.00,1063.00 938.00,1047.00 938.00,1047.00              938.00,1047.00 941.00,1028.00 941.00,1028.00              941.00,1028.00 944.00,1013.00 944.00,1013.00              944.00,1013.00 948.00,993.00 948.00,993.00              948.00,993.00 955.00,975.00 955.00,975.00              955.00,975.00 959.00,955.00 959.00,955.00              959.00,955.00 958.00,931.00 958.00,931.00              958.00,931.00 961.00,905.00 961.00,905.00              961.00,905.00 960.00,889.00 960.00,889.00              960.00,889.00 964.00,872.00 964.00,872.00              964.00,872.00 965.00,853.00 965.00,853.00              965.00,853.00 966.00,836.00 966.00,836.00              966.00,836.00 963.00,820.00 963.00,820.00              963.00,820.00 960.00,802.00 960.00,802.00              960.00,802.00 956.00,783.00 956.00,783.00              956.00,783.00 958.00,765.00 958.00,765.00              958.00,765.00 960.00,745.00 960.00,745.00              960.00,745.00 960.00,728.00 960.00,728.00              960.00,728.00 955.00,711.00 955.00,711.00              955.00,711.00 946.00,698.00 946.00,698.00              946.00,698.00 934.00,691.00 934.00,691.00              934.00,691.00 923.00,680.00 923.00,680.00              923.00,680.00 911.00,662.00 911.00,662.00              911.00,662.00 903.00,649.00 903.00,649.00              903.00,649.00 888.00,642.00 888.00,642.00              888.00,642.00 873.00,639.00 873.00,639.00              873.00,639.00 854.00,630.00 854.00,630.00              854.00,630.00 840.00,617.00 840.00,617.00              840.00,617.00 828.00,601.00 828.00,601.00              828.00,601.00 824.00,585.00 824.00,585.00              824.00,585.00 823.00,569.00 823.00,569.00              823.00,569.00 823.00,548.00 823.00,548.00              823.00,548.00 820.00,528.00 820.00,528.00              820.00,528.00 813.00,509.00 813.00,509.00              813.00,509.00 806.00,488.00 806.00,488.00              806.00,488.00 808.00,468.00 808.00,468.00              808.00,468.00 816.00,452.00 816.00,452.00              816.00,452.00 818.00,438.00 818.00,438.00              818.00,438.00 819.00,418.00 819.00,418.00              819.00,418.00 819.00,403.00 819.00,403.00              819.00,403.00 823.00,386.00 823.00,386.00              823.00,386.00 824.00,377.00 824.00,377.00"
   />
</svg>
