<?xml version="1.0" encoding="UTF-8" standalone="no"?>
<svg xmlns:dc="http://purl.org/dc/elements/1.1/" xmlns:cc="http://creativecommons.org/ns#"
   xmlns:rdf="http://www.w3.org/1999/02/22-rdf-syntax-ns#" xmlns:svg="http://www.w3.org/2000/svg"
   xmlns="http://www.w3.org/2000/svg"
   xmlns:sodipodi="http://sodipodi.sourceforge.net/DTD/sodipodi-0.dtd"
   xmlns:inkscape="http://www.inkscape.org/namespaces/inkscape" width="8.50667in" height="11.44in"
   viewBox="0 0 1276 1716" id="svg2" version="1.1" inkscape:version="0.47pre1"
   sodipodi:docname="Z1F" inkscape:output_extension="org.inkscape.output.svg.inkscape">
   <metadata id="metadata9">
      <rdf:RDF>
         <cc:Work rdf:about="">
            <dc:format>image/svg+xml</dc:format>
            <dc:type rdf:resource="http://purl.org/dc/dcmitype/StillImage"/>
            <dc:title/>
         </cc:Work>
      </rdf:RDF>
   </metadata>
   <defs id="defs7">
      <inkscape:perspective sodipodi:type="inkscape:persp3d" inkscape:vp_x="0 : 514.79999 : 1"
         inkscape:vp_y="0 : 1000 : 0" inkscape:vp_z="765.60028 : 514.79999 : 1"
         inkscape:persp3d-origin="382.80014 : 343.19999 : 1" id="perspective11"/>
   </defs>
   <sodipodi:namedview pagecolor="#ffffff" bordercolor="#666666" borderopacity="1"
      objecttolerance="10" gridtolerance="10" guidetolerance="10" inkscape:pageopacity="0"
      inkscape:pageshadow="2" inkscape:window-width="640" inkscape:window-height="483"
      id="namedview5" showgrid="false" inkscape:zoom="0.22921523" inkscape:cx="382.80014"
      inkscape:cy="514.79999" inkscape:window-x="0" inkscape:window-y="0"
      inkscape:window-maximized="0" inkscape:current-layer="svg2"/>
   <path id="Unnamed#2" fill="none" stroke="black" stroke-width="1"
      d="M 572.00,1387.00            C 572.00,1387.00 591.00,1376.00 591.00,1376.00M 583.00,1380.00            C 583.00,1380.00 568.00,1391.00 568.00,1391.00              568.00,1391.00 554.00,1398.00 554.00,1398.00              554.00,1398.00 542.00,1403.00 542.00,1403.00              542.00,1403.00 531.00,1411.00 531.00,1411.00              531.00,1411.00 511.00,1415.00 511.00,1415.00M 588.00,1500.00            C 588.00,1500.00 589.00,1485.00 589.00,1485.00              589.00,1485.00 589.00,1468.00 589.00,1468.00              589.00,1468.00 590.00,1451.00 590.00,1451.00              590.00,1451.00 590.00,1432.00 590.00,1432.00              590.00,1432.00 589.00,1414.00 589.00,1414.00              589.00,1414.00 589.00,1396.00 589.00,1396.00              589.00,1396.00 588.00,1380.00 588.00,1380.00              588.00,1380.00 590.00,1371.00 590.00,1371.00              590.00,1371.00 595.00,1360.00 595.00,1360.00              595.00,1360.00 599.00,1347.00 599.00,1347.00              599.00,1347.00 604.00,1336.00 604.00,1336.00              604.00,1336.00 604.00,1321.00 604.00,1321.00              604.00,1321.00 602.00,1304.00 602.00,1304.00              602.00,1304.00 597.00,1287.00 597.00,1287.00              597.00,1287.00 594.00,1267.00 594.00,1267.00              594.00,1267.00 595.00,1250.00 595.00,1250.00              595.00,1250.00 594.00,1232.00 594.00,1232.00              594.00,1232.00 598.00,1215.00 598.00,1215.00              598.00,1215.00 598.00,1196.00 598.00,1196.00              598.00,1196.00 598.00,1179.00 598.00,1179.00              598.00,1179.00 598.00,1153.00 598.00,1153.00              598.00,1153.00 599.00,1134.00 599.00,1134.00              599.00,1134.00 601.00,1111.00 601.00,1111.00              601.00,1111.00 601.00,1089.00 601.00,1089.00              601.00,1089.00 601.00,1071.00 601.00,1071.00              601.00,1071.00 600.00,1053.00 600.00,1053.00              600.00,1053.00 600.00,1034.00 600.00,1034.00              600.00,1034.00 603.00,1016.00 603.00,1016.00              603.00,1016.00 603.00,991.00 603.00,991.00              603.00,991.00 601.00,971.00 601.00,971.00              601.00,971.00 597.00,952.00 597.00,952.00              597.00,952.00 591.00,931.00 591.00,931.00              591.00,931.00 581.00,915.00 581.00,915.00              581.00,915.00 566.00,901.00 566.00,901.00              566.00,901.00 552.00,888.00 552.00,888.00              552.00,888.00 539.00,872.00 539.00,872.00              539.00,872.00 525.00,855.00 525.00,855.00              525.00,855.00 515.00,839.00 515.00,839.00              515.00,839.00 506.00,820.00 506.00,820.00              506.00,820.00 502.00,798.00 502.00,798.00              502.00,798.00 504.00,779.00 504.00,779.00              504.00,779.00 504.00,762.00 504.00,762.00              504.00,762.00 506.00,744.00 506.00,744.00              506.00,744.00 511.00,728.00 511.00,728.00              511.00,728.00 514.00,710.00 514.00,710.00              514.00,710.00 518.00,695.00 518.00,695.00              518.00,695.00 527.00,679.00 527.00,679.00              527.00,679.00 537.00,665.00 537.00,665.00              537.00,665.00 548.00,649.00 548.00,649.00              548.00,649.00 561.00,635.00 561.00,635.00              561.00,635.00 577.00,617.00 577.00,617.00              577.00,617.00 586.00,602.00 586.00,602.00              586.00,602.00 593.00,588.00 593.00,588.00              593.00,588.00 598.00,567.00 598.00,567.00              598.00,567.00 602.00,545.00 602.00,545.00              602.00,545.00 601.00,521.00 601.00,521.00              601.00,521.00 602.00,499.00 602.00,499.00              602.00,499.00 607.00,480.00 607.00,480.00              607.00,480.00 610.00,456.00 610.00,456.00              610.00,456.00 616.00,440.00 616.00,440.00              616.00,440.00 623.00,427.00 623.00,427.00              623.00,427.00 634.00,413.00 634.00,413.00              634.00,413.00 641.00,395.00 641.00,395.00              641.00,395.00 648.00,378.00 648.00,378.00              648.00,378.00 657.00,360.00 657.00,360.00              657.00,360.00 661.00,340.00 661.00,340.00              661.00,340.00 664.00,327.00 664.00,327.00              664.00,327.00 674.00,313.00 674.00,313.00              674.00,313.00 681.00,297.00 681.00,297.00              681.00,297.00 693.00,282.00 693.00,282.00              693.00,282.00 706.00,275.00 706.00,275.00              706.00,275.00 720.00,269.00 720.00,269.00              720.00,269.00 734.00,258.00 734.00,258.00              734.00,258.00 745.00,247.00 745.00,247.00              745.00,247.00 752.00,229.00 752.00,229.00              752.00,229.00 754.00,209.00 754.00,209.00              754.00,209.00 759.00,190.00 759.00,190.00              759.00,190.00 764.00,174.00 764.00,174.00              764.00,174.00 771.00,162.00 771.00,162.00              771.00,162.00 783.00,154.00 783.00,154.00              783.00,154.00 798.00,152.00 798.00,152.00              798.00,152.00 812.00,154.00 812.00,154.00              812.00,154.00 826.00,153.00 826.00,153.00              826.00,153.00 838.00,153.00 838.00,153.00              838.00,153.00 849.00,146.00 849.00,146.00              849.00,146.00 861.00,138.00 861.00,138.00              861.00,138.00 876.00,135.00 876.00,135.00              876.00,135.00 889.00,140.00 889.00,140.00              889.00,140.00 901.00,149.00 901.00,149.00              901.00,149.00 912.00,160.00 912.00,160.00              912.00,160.00 916.00,173.00 916.00,173.00              916.00,173.00 925.00,187.00 925.00,187.00              925.00,187.00 936.00,201.00 936.00,201.00              936.00,201.00 946.00,212.00 946.00,212.00              946.00,212.00 958.00,221.00 958.00,221.00              958.00,221.00 971.00,226.00 971.00,226.00"
   />
</svg>
