<?xml version="1.0" encoding="UTF-8" standalone="no"?>
<svg
   xmlns:dc="http://purl.org/dc/elements/1.1/"
   xmlns:cc="http://creativecommons.org/ns#"
   xmlns:rdf="http://www.w3.org/1999/02/22-rdf-syntax-ns#"
   xmlns:svg="http://www.w3.org/2000/svg"
   xmlns="http://www.w3.org/2000/svg"
   xmlns:sodipodi="http://sodipodi.sourceforge.net/DTD/sodipodi-0.dtd"
   xmlns:inkscape="http://www.inkscape.org/namespaces/inkscape"
   width="8.24in"
   height="11.66in"
   viewBox="0 0 824 1166"
   id="svg2"
   version="1.1"
   inkscape:version="0.47pre1"
   sodipodi:docname="Z212F"
   inkscape:output_extension="org.inkscape.output.svg.inkscape">
  <metadata
     id="metadata9">
    <rdf:RDF>
      <cc:Work
         rdf:about="">
        <dc:format>image/svg+xml</dc:format>
        <dc:type
           rdf:resource="http://purl.org/dc/dcmitype/StillImage" />
        <dc:title></dc:title>
      </cc:Work>
    </rdf:RDF>
  </metadata>
  <defs
     id="defs7">
    <inkscape:perspective
       sodipodi:type="inkscape:persp3d"
       inkscape:vp_x="0 : 524.70001 : 1"
       inkscape:vp_y="0 : 1000 : 0"
       inkscape:vp_z="741.59998 : 524.70001 : 1"
       inkscape:persp3d-origin="370.79999 : 349.80001 : 1"
       id="perspective11" />
  </defs>
  <sodipodi:namedview
     pagecolor="#ffffff"
     bordercolor="#666666"
     borderopacity="1"
     objecttolerance="10"
     gridtolerance="10"
     guidetolerance="10"
     inkscape:pageopacity="0"
     inkscape:pageshadow="2"
     inkscape:window-width="640"
     inkscape:window-height="483"
     id="namedview5"
     showgrid="false"
     inkscape:zoom="0.22489041"
     inkscape:cx="370.79999"
     inkscape:cy="524.70001"
     inkscape:window-x="0"
     inkscape:window-y="0"
     inkscape:window-maximized="0"
     inkscape:current-layer="svg2" />
  <path
     id="Unnamed#7"
     fill="none"
     stroke="black"
     stroke-width="1"
     d="M 546.00,489.33            C 546.00,489.33 540.67,498.00 540.67,498.00              540.67,498.00 536.67,505.33 536.67,505.33              536.67,505.33 535.33,512.00 535.33,512.00              535.33,512.00 538.00,518.67 538.00,518.67              538.00,518.67 543.33,521.33 543.33,521.33              543.33,521.33 548.67,526.00 548.67,526.00              548.67,526.00 558.00,534.00 558.00,534.00M 669.33,518.00            C 669.33,518.00 660.00,510.67 660.00,510.67              660.00,510.67 652.00,502.00 652.00,502.00              652.00,502.00 646.67,494.67 646.67,494.67              646.67,494.67 638.00,482.67 638.00,482.67M 616.67,592.67            C 616.67,592.67 617.33,584.67 617.33,584.67              617.33,584.67 621.33,570.67 621.33,570.67M 342.00,741.33            C 342.00,741.33 344.00,731.33 344.00,731.33              344.00,731.33 348.00,720.00 348.00,720.00              348.00,720.00 356.00,702.00 356.00,702.00              356.00,702.00 360.67,693.33 360.67,693.33              360.67,693.33 366.00,686.00 366.00,686.00              366.00,686.00 374.00,672.67 374.00,672.67M 396.67,563.33            C 396.67,563.33 403.33,568.67 403.33,568.67              403.33,568.67 410.67,574.67 410.67,574.67              410.67,574.67 417.33,580.00 417.33,580.00              417.33,580.00 425.33,587.33 425.33,587.33              425.33,587.33 431.33,594.00 431.33,594.00              431.33,594.00 435.33,603.33 435.33,603.33              435.33,603.33 438.67,614.00 438.67,614.00              438.67,614.00 439.33,625.33 439.33,625.33              439.33,625.33 436.67,634.00 436.67,634.00              436.67,634.00 431.33,639.33 431.33,639.33              431.33,639.33 422.67,642.67 422.67,642.67              422.67,642.67 412.67,644.67 412.67,644.67              412.67,644.67 400.67,640.67 400.67,640.67              400.67,640.67 389.33,635.33 389.33,635.33              389.33,635.33 376.00,630.00 376.00,630.00              376.00,630.00 365.33,626.00 365.33,626.00              365.33,626.00 354.00,622.00 354.00,622.00              354.00,622.00 346.00,625.33 346.00,625.33              346.00,625.33 337.33,631.33 337.33,631.33              337.33,631.33 331.33,639.33 331.33,639.33              331.33,639.33 332.67,648.00 332.67,648.00              332.67,648.00 338.67,654.67 338.67,654.67              338.67,654.67 346.00,659.33 346.00,659.33              346.00,659.33 353.33,663.33 353.33,663.33              353.33,663.33 360.00,665.33 360.00,665.33              360.00,665.33 366.67,670.00 366.67,670.00              366.67,670.00 370.67,674.67 370.67,674.67M 699.33,601.33            C 699.33,601.33 692.00,591.33 692.00,591.33              692.00,591.33 684.00,582.00 684.00,582.00              684.00,582.00 675.33,576.67 675.33,576.67              675.33,576.67 664.67,572.00 664.67,572.00              664.67,572.00 652.67,569.33 652.67,569.33              652.67,569.33 640.67,567.33 640.67,567.33              640.67,567.33 630.67,570.67 630.67,570.67              630.67,570.67 621.33,571.33 621.33,571.33              621.33,571.33 614.67,574.00 614.67,574.00              614.67,574.00 606.00,578.67 606.00,578.67              606.00,578.67 598.00,586.00 598.00,586.00              598.00,586.00 595.33,592.00 595.33,592.00              595.33,592.00 593.33,600.00 593.33,600.00              593.33,600.00 585.33,601.33 585.33,601.33              585.33,601.33 576.67,600.00 576.67,600.00              576.67,600.00 560.67,590.00 560.67,590.00M 202.67,676.67            C 202.67,676.67 214.00,675.33 214.00,675.33              214.00,675.33 222.00,676.00 222.00,676.00              222.00,676.00 234.00,674.67 234.00,674.67              234.00,674.67 244.00,676.00 244.00,676.00              244.00,676.00 256.00,676.00 256.00,676.00              256.00,676.00 268.67,674.67 268.67,674.67              268.67,674.67 280.67,672.67 280.67,672.67              280.67,672.67 293.33,674.67 293.33,674.67              293.33,674.67 303.33,674.00 303.33,674.00              303.33,674.00 314.00,673.33 314.00,673.33              314.00,673.33 323.33,675.33 323.33,675.33              323.33,675.33 334.67,676.00 334.67,676.00              334.67,676.00 343.33,674.00 343.33,674.00              343.33,674.00 355.33,674.00 355.33,674.00              355.33,674.00 364.67,674.67 364.67,674.67              364.67,674.67 372.00,673.33 372.00,673.33              372.00,673.33 381.33,674.00 381.33,674.00              381.33,674.00 390.67,673.33 390.67,673.33              390.67,673.33 400.00,674.00 400.00,674.00              400.00,674.00 407.33,674.00 407.33,674.00              407.33,674.00 415.33,675.33 415.33,675.33              415.33,675.33 422.67,678.67 422.67,678.67              422.67,678.67 428.67,684.00 428.67,684.00              428.67,684.00 434.67,691.33 434.67,691.33              434.67,691.33 440.67,696.67 440.67,696.67              440.67,696.67 448.00,699.33 448.00,699.33              448.00,699.33 456.00,696.00 456.00,696.00              456.00,696.00 462.67,692.67 462.67,692.67              462.67,692.67 470.00,688.00 470.00,688.00              470.00,688.00 476.00,682.00 476.00,682.00              476.00,682.00 481.33,676.67 481.33,676.67              481.33,676.67 486.00,668.67 486.00,668.67              486.00,668.67 490.00,660.00 490.00,660.00              490.00,660.00 493.33,650.00 493.33,650.00              493.33,650.00 500.00,648.67 500.00,648.67              500.00,648.67 503.33,645.33 503.33,645.33              503.33,645.33 504.00,637.33 504.00,637.33              504.00,637.33 506.67,629.33 506.67,629.33              506.67,629.33 511.33,623.33 511.33,623.33              511.33,623.33 516.67,615.33 516.67,615.33              516.67,615.33 522.00,607.33 522.00,607.33              522.00,607.33 530.00,601.33 530.00,601.33              530.00,601.33 537.33,596.00 537.33,596.00              537.33,596.00 545.33,592.67 545.33,592.67              545.33,592.67 552.00,590.67 552.00,590.67              552.00,590.67 561.33,591.33 561.33,591.33              561.33,591.33 556.67,584.00 556.67,584.00              556.67,584.00 549.33,575.33 549.33,575.33              549.33,575.33 543.33,571.33 543.33,571.33              543.33,571.33 538.67,566.67 538.67,566.67              538.67,566.67 536.00,560.00 536.00,560.00              536.00,560.00 540.67,556.00 540.67,556.00              540.67,556.00 544.00,552.00 544.00,552.00              544.00,552.00 548.67,548.67 548.67,548.67              548.67,548.67 553.33,545.33 553.33,545.33              553.33,545.33 555.33,538.00 555.33,538.00              555.33,538.00 559.33,532.00 559.33,532.00              559.33,532.00 564.67,525.33 564.67,525.33              564.67,525.33 569.33,518.00 569.33,518.00              569.33,518.00 574.00,511.33 574.00,511.33              574.00,511.33 580.00,506.67 580.00,506.67              580.00,506.67 588.00,508.00 588.00,508.00              588.00,508.00 594.00,510.00 594.00,510.00              594.00,510.00 600.67,514.67 600.67,514.67              600.67,514.67 608.67,516.67 608.67,516.67              608.67,516.67 616.00,515.33 616.00,515.33              616.00,515.33 624.00,510.67 624.00,510.67              624.00,510.67 630.67,503.33 630.67,503.33              630.67,503.33 636.00,493.33 636.00,493.33              636.00,493.33 638.67,482.00 638.67,482.00              638.67,482.00 640.67,471.33 640.67,471.33              640.67,471.33 640.00,459.33 640.00,459.33              640.00,459.33 636.67,448.00 636.67,448.00              636.67,448.00 634.67,436.67 634.67,436.67              634.67,436.67 629.33,426.67 629.33,426.67              629.33,426.67 620.67,418.00 620.67,418.00              620.67,418.00 611.33,415.33 611.33,415.33              611.33,415.33 603.33,418.00 603.33,418.00              603.33,418.00 597.33,424.67 597.33,424.67              597.33,424.67 589.33,430.00 589.33,430.00              589.33,430.00 581.33,434.67 581.33,434.67              581.33,434.67 570.67,437.33 570.67,437.33              570.67,437.33 564.00,435.33 564.00,435.33              564.00,435.33 557.33,429.33 557.33,429.33              557.33,429.33 550.00,421.33 550.00,421.33              550.00,421.33 545.33,412.00 545.33,412.00              545.33,412.00 541.33,401.33 541.33,401.33              541.33,401.33 533.33,395.33 533.33,395.33              533.33,395.33 523.33,395.33 523.33,395.33              523.33,395.33 514.67,399.33 514.67,399.33              514.67,399.33 506.00,404.00 506.00,404.00              506.00,404.00 499.33,411.33 499.33,411.33              499.33,411.33 496.67,419.33 496.67,419.33              496.67,419.33 494.67,426.67 494.67,426.67M 903.00,123.00" />
</svg>
