<?xml version="1.0" encoding="UTF-8" standalone="no"?>
<svg
   xmlns:dc="http://purl.org/dc/elements/1.1/"
   xmlns:cc="http://creativecommons.org/ns#"
   xmlns:rdf="http://www.w3.org/1999/02/22-rdf-syntax-ns#"
   xmlns:svg="http://www.w3.org/2000/svg"
   xmlns="http://www.w3.org/2000/svg"
   xmlns:sodipodi="http://sodipodi.sourceforge.net/DTD/sodipodi-0.dtd"
   xmlns:inkscape="http://www.inkscape.org/namespaces/inkscape"
   width="8.24in"
   height="11.66in"
   viewBox="0 0 824 1166"
   id="svg2"
   version="1.1"
   inkscape:version="0.47pre1"
   sodipodi:docname="Z218F"
   inkscape:output_extension="org.inkscape.output.svg.inkscape">
  <metadata
     id="metadata9">
    <rdf:RDF>
      <cc:Work
         rdf:about="">
        <dc:format>image/svg+xml</dc:format>
        <dc:type
           rdf:resource="http://purl.org/dc/dcmitype/StillImage" />
        <dc:title></dc:title>
      </cc:Work>
    </rdf:RDF>
  </metadata>
  <defs
     id="defs7">
    <inkscape:perspective
       sodipodi:type="inkscape:persp3d"
       inkscape:vp_x="0 : 524.70001 : 1"
       inkscape:vp_y="0 : 1000 : 0"
       inkscape:vp_z="741.59998 : 524.70001 : 1"
       inkscape:persp3d-origin="370.79999 : 349.80001 : 1"
       id="perspective11" />
  </defs>
  <sodipodi:namedview
     pagecolor="#ffffff"
     bordercolor="#666666"
     borderopacity="1"
     objecttolerance="10"
     gridtolerance="10"
     guidetolerance="10"
     inkscape:pageopacity="0"
     inkscape:pageshadow="2"
     inkscape:window-width="640"
     inkscape:window-height="483"
     id="namedview5"
     showgrid="false"
     inkscape:zoom="0.22489041"
     inkscape:cx="370.79999"
     inkscape:cy="524.70001"
     inkscape:window-x="0"
     inkscape:window-y="0"
     inkscape:window-maximized="0"
     inkscape:current-layer="svg2" />
  <path
     id="Unnamed#7"
     fill="none"
     stroke="black"
     stroke-width="1"
     d="M 604.00,346.67            C 604.00,346.67 605.33,338.00 605.33,338.00              605.33,338.00 604.00,328.00 604.00,328.00              604.00,328.00 600.67,318.00 600.67,318.00              600.67,318.00 594.67,308.67 594.67,308.67              594.67,308.67 588.67,300.00 588.67,300.00              588.67,300.00 583.33,290.67 583.33,290.67              583.33,290.67 572.67,282.00 572.67,282.00              572.67,282.00 564.67,274.00 564.67,274.00              564.67,274.00 554.67,268.67 554.67,268.67              554.67,268.67 546.67,264.67 546.67,264.67              546.67,264.67 538.67,260.67 538.67,260.67M 491.33,392.00            C 491.33,392.00 488.67,382.00 488.67,382.00              488.67,382.00 484.67,373.33 484.67,373.33              484.67,373.33 478.67,364.00 478.67,364.00              478.67,364.00 471.33,358.00 471.33,358.00              471.33,358.00 460.67,351.33 460.67,351.33M 336.67,568.67            C 336.67,568.67 343.33,568.67 343.33,568.67              343.33,568.67 348.67,570.00 348.67,570.00              348.67,570.00 359.33,574.67 359.33,574.67M 364.67,664.00            C 364.67,664.00 366.67,654.67 366.67,654.67              366.67,654.67 368.67,644.00 368.67,644.00              368.67,644.00 372.67,638.67 372.67,638.67              372.67,638.67 380.00,631.33 380.00,631.33M 432.67,648.67            C 432.67,648.67 432.67,639.33 432.67,639.33              432.67,639.33 432.00,623.33 432.00,623.33M 471.33,651.33            C 471.33,651.33 466.67,658.67 466.67,658.67              466.67,658.67 459.33,664.00 459.33,664.00              459.33,664.00 450.00,662.67 450.00,662.67              450.00,662.67 447.33,653.33 447.33,653.33              447.33,653.33 447.33,642.00 447.33,642.00              447.33,642.00 451.33,632.00 451.33,632.00              451.33,632.00 457.33,625.33 457.33,625.33              457.33,625.33 464.00,620.67 464.00,620.67              464.00,620.67 471.33,619.33 471.33,619.33              471.33,619.33 475.33,618.00 475.33,618.00              475.33,618.00 484.67,612.67 484.67,612.67M 519.33,759.33            C 519.33,759.33 525.33,756.00 525.33,756.00              525.33,756.00 532.67,755.33 532.67,755.33              532.67,755.33 539.33,752.67 539.33,752.67M 582.67,150.67            C 582.67,150.67 582.67,162.00 582.67,162.00              582.67,162.00 580.00,173.33 580.00,173.33              580.00,173.33 576.00,184.67 576.00,184.67              576.00,184.67 568.67,192.00 568.67,192.00              568.67,192.00 560.00,200.67 560.00,200.67              560.00,200.67 552.00,208.67 552.00,208.67              552.00,208.67 543.33,217.33 543.33,217.33              543.33,217.33 536.67,231.33 536.67,231.33              536.67,231.33 536.67,242.00 536.67,242.00              536.67,242.00 540.00,251.33 540.00,251.33              540.00,251.33 540.00,261.33 540.00,261.33              540.00,261.33 534.67,266.67 534.67,266.67              534.67,266.67 530.67,274.67 530.67,274.67              530.67,274.67 526.00,284.67 526.00,284.67              526.00,284.67 520.67,292.67 520.67,292.67              520.67,292.67 512.67,298.67 512.67,298.67              512.67,298.67 504.00,304.00 504.00,304.00              504.00,304.00 494.67,308.00 494.67,308.00              494.67,308.00 489.33,315.33 489.33,315.33              489.33,315.33 490.00,324.00 490.00,324.00              490.00,324.00 487.33,332.00 487.33,332.00              487.33,332.00 479.33,335.33 479.33,335.33              479.33,335.33 472.00,342.00 472.00,342.00              472.00,342.00 464.00,349.33 464.00,349.33              464.00,349.33 456.00,354.67 456.00,354.67              456.00,354.67 446.00,358.67 446.00,358.67              446.00,358.67 438.00,364.67 438.00,364.67              438.00,364.67 430.00,373.33 430.00,373.33              430.00,373.33 420.00,378.00 420.00,378.00              420.00,378.00 410.67,381.33 410.67,381.33              410.67,381.33 404.00,386.67 404.00,386.67              404.00,386.67 400.00,394.67 400.00,394.67              400.00,394.67 397.33,404.67 397.33,404.67              397.33,404.67 395.33,414.67 395.33,414.67              395.33,414.67 395.33,427.33 395.33,427.33              395.33,427.33 394.67,438.67 394.67,438.67              394.67,438.67 394.00,448.00 394.00,448.00              394.00,448.00 392.00,457.33 392.00,457.33              392.00,457.33 388.00,459.33 388.00,459.33              388.00,459.33 382.00,459.33 382.00,459.33              382.00,459.33 374.00,459.33 374.00,459.33              374.00,459.33 366.00,464.00 366.00,464.00              366.00,464.00 358.00,467.33 358.00,467.33              358.00,467.33 350.67,473.33 350.67,473.33              350.67,473.33 345.33,481.33 345.33,481.33              345.33,481.33 338.67,489.33 338.67,489.33              338.67,489.33 332.67,500.00 332.67,500.00              332.67,500.00 331.33,511.33 331.33,511.33              331.33,511.33 332.00,523.33 332.00,523.33              332.00,523.33 336.67,534.00 336.67,534.00              336.67,534.00 340.00,546.00 340.00,546.00              340.00,546.00 346.00,552.67 346.00,552.67              346.00,552.67 352.67,557.33 352.67,557.33              352.67,557.33 358.67,566.67 358.67,566.67              358.67,566.67 360.67,579.33 360.67,579.33              360.67,579.33 362.00,590.00 362.00,590.00              362.00,590.00 362.67,598.67 362.67,598.67              362.67,598.67 368.00,607.33 368.00,607.33              368.00,607.33 374.67,614.00 374.67,614.00              374.67,614.00 378.00,625.33 378.00,625.33              378.00,625.33 381.33,632.67 381.33,632.67              381.33,632.67 388.67,638.00 388.67,638.00              388.67,638.00 396.67,637.33 396.67,637.33              396.67,637.33 404.67,633.33 404.67,633.33              404.67,633.33 413.33,632.00 413.33,632.00              413.33,632.00 420.67,632.00 420.67,632.00              420.67,632.00 428.67,628.00 428.67,628.00              428.67,628.00 436.00,619.33 436.00,619.33              436.00,619.33 442.00,610.00 442.00,610.00              442.00,610.00 448.00,601.33 448.00,601.33              448.00,601.33 456.00,594.67 456.00,594.67              456.00,594.67 462.00,593.33 462.00,593.33              462.00,593.33 468.67,598.00 468.67,598.00              468.67,598.00 474.00,604.00 474.00,604.00              474.00,604.00 479.33,608.67 479.33,608.67              479.33,608.67 486.67,616.00 486.67,616.00              486.67,616.00 492.67,622.67 492.67,622.67              492.67,622.67 496.00,633.33 496.00,633.33              496.00,633.33 495.33,645.33 495.33,645.33              495.33,645.33 496.00,657.33 496.00,657.33              496.00,657.33 494.67,668.00 494.67,668.00              494.67,668.00 496.00,680.67 496.00,680.67              496.00,680.67 496.67,693.33 496.67,693.33              496.67,693.33 502.00,701.33 502.00,701.33              502.00,701.33 510.00,710.00 510.00,710.00              510.00,710.00 518.00,715.33 518.00,715.33              518.00,715.33 524.00,725.33 524.00,725.33              524.00,725.33 528.67,739.33 528.67,739.33              528.67,739.33 535.33,749.33 535.33,749.33              535.33,749.33 544.00,755.33 544.00,755.33              544.00,755.33 554.67,761.33 554.67,761.33              554.67,761.33 562.67,768.00 562.67,768.00              562.67,768.00 566.67,774.00 566.67,774.00              566.67,774.00 566.67,784.67 566.67,784.67              566.67,784.67 566.67,796.67 566.67,796.67              566.67,796.67 566.67,810.00 566.67,810.00              566.67,810.00 566.00,824.00 566.00,824.00              566.00,824.00 570.67,836.67 570.67,836.67              570.67,836.67 576.67,847.33 576.67,847.33              576.67,847.33 583.33,854.67 583.33,854.67              583.33,854.67 592.67,863.33 592.67,863.33              592.67,863.33 604.67,870.00 604.67,870.00              604.67,870.00 617.33,875.33 617.33,875.33              617.33,875.33 629.33,881.33 629.33,881.33              629.33,881.33 639.33,887.33 639.33,887.33              639.33,887.33 644.00,892.67 644.00,892.67              644.00,892.67 644.00,904.00 644.00,904.00              644.00,904.00 644.00,918.00 644.00,918.00              644.00,918.00 644.00,933.33 644.00,933.33              644.00,933.33 644.67,946.00 644.67,946.00              644.67,946.00 640.67,952.67 640.67,952.67              640.67,952.67 635.33,961.33 635.33,961.33              635.33,961.33 630.67,969.33 630.67,969.33              630.67,969.33 628.67,977.33 628.67,977.33              628.67,977.33 630.67,988.00 630.67,988.00              630.67,988.00 636.00,997.33 636.00,997.33              636.00,997.33 644.00,1002.67 644.00,1002.67              644.00,1002.67 656.00,1006.67 656.00,1006.67              656.00,1006.67 663.33,1007.33 663.33,1007.33              663.33,1007.33 670.67,1010.00 670.67,1010.00" />
</svg>
