<?xml version="1.0" encoding="UTF-8" standalone="no"?>
<svg xmlns:dc="http://purl.org/dc/elements/1.1/" xmlns:cc="http://creativecommons.org/ns#"
   xmlns:rdf="http://www.w3.org/1999/02/22-rdf-syntax-ns#" xmlns:svg="http://www.w3.org/2000/svg"
   xmlns="http://www.w3.org/2000/svg"
   xmlns:sodipodi="http://sodipodi.sourceforge.net/DTD/sodipodi-0.dtd"
   xmlns:inkscape="http://www.inkscape.org/namespaces/inkscape" width="8.50667in" height="11.4333in"
   viewBox="0 0 1276 1715" id="svg2" version="1.1" inkscape:version="0.47pre1"
   sodipodi:docname="Z2F" inkscape:output_extension="org.inkscape.output.svg.inkscape">
   <metadata id="metadata9">
      <rdf:RDF>
         <cc:Work rdf:about="">
            <dc:format>image/svg+xml</dc:format>
            <dc:type rdf:resource="http://purl.org/dc/dcmitype/StillImage"/>
            <dc:title/>
         </cc:Work>
      </rdf:RDF>
   </metadata>
   <defs id="defs7">
      <inkscape:perspective sodipodi:type="inkscape:persp3d" inkscape:vp_x="0 : 514.49847 : 1"
         inkscape:vp_y="0 : 1000 : 0" inkscape:vp_z="765.60028 : 514.49847 : 1"
         inkscape:persp3d-origin="382.80014 : 342.99898 : 1" id="perspective11"/>
   </defs>
   <sodipodi:namedview pagecolor="#ffffff" bordercolor="#666666" borderopacity="1"
      objecttolerance="10" gridtolerance="10" guidetolerance="10" inkscape:pageopacity="0"
      inkscape:pageshadow="2" inkscape:window-width="640" inkscape:window-height="483"
      id="namedview5" showgrid="false" inkscape:zoom="0.22934956" inkscape:cx="382.80014"
      inkscape:cy="514.49847" inkscape:window-x="0" inkscape:window-y="0"
      inkscape:window-maximized="0" inkscape:current-layer="svg2"/>
   <path id="Unnamed#3" fill="none" stroke="black" stroke-width="1"
      d="M 636.00,1429.00            C 636.00,1429.00 626.00,1405.00 626.00,1405.00              632.09,1401.76 573.51,1329.07 568.00,1332.00M 733.00,520.00            C 733.00,520.00 735.00,510.00 735.00,510.00              735.00,510.00 739.00,498.00 739.00,498.00              739.00,498.00 739.00,484.00 739.00,484.00M 864.00,446.00            C 864.00,446.00 853.00,444.00 853.00,444.00              853.00,444.00 839.00,447.00 839.00,447.00M 633.00,1560.00            C 633.00,1560.00 639.00,1546.00 639.00,1546.00              639.00,1546.00 640.00,1530.00 640.00,1530.00              640.00,1530.00 641.00,1511.00 641.00,1511.00              641.00,1511.00 642.00,1492.00 642.00,1492.00              642.00,1492.00 642.00,1471.00 642.00,1471.00              642.00,1471.00 639.00,1452.00 639.00,1452.00              639.00,1452.00 637.00,1432.00 637.00,1432.00              637.00,1432.00 642.00,1419.00 642.00,1419.00              642.00,1419.00 647.00,1404.00 647.00,1404.00              647.00,1404.00 647.00,1385.00 647.00,1385.00              647.00,1385.00 648.00,1366.00 648.00,1366.00              648.00,1366.00 647.00,1348.00 647.00,1348.00              647.00,1348.00 642.00,1325.00 642.00,1325.00              642.00,1325.00 637.00,1305.00 637.00,1305.00              637.00,1305.00 632.00,1286.00 632.00,1286.00              632.00,1286.00 624.00,1262.00 624.00,1262.00              624.00,1262.00 623.00,1243.00 623.00,1243.00              623.00,1243.00 622.00,1222.00 622.00,1222.00              622.00,1222.00 629.00,1203.00 629.00,1203.00              629.00,1203.00 636.00,1189.00 636.00,1189.00              636.00,1189.00 640.00,1174.00 640.00,1174.00              640.00,1174.00 639.00,1155.00 639.00,1155.00              639.00,1155.00 628.00,1135.00 628.00,1135.00              628.00,1135.00 614.00,1116.00 614.00,1116.00              614.00,1116.00 602.00,1099.00 602.00,1099.00              602.00,1099.00 596.00,1083.00 596.00,1083.00              596.00,1083.00 596.00,1068.00 596.00,1068.00              596.00,1068.00 600.00,1054.00 600.00,1054.00              600.00,1054.00 608.00,1040.00 608.00,1040.00              608.00,1040.00 618.00,1031.00 618.00,1031.00              618.00,1031.00 627.00,1019.00 627.00,1019.00              627.00,1019.00 630.00,1005.00 630.00,1005.00              630.00,1005.00 630.00,987.00 630.00,987.00              630.00,987.00 628.00,964.00 628.00,964.00              628.00,964.00 626.00,940.00 626.00,940.00              626.00,940.00 623.00,922.00 623.00,922.00              623.00,922.00 626.00,899.00 626.00,899.00              626.00,899.00 625.00,876.00 625.00,876.00              625.00,876.00 619.00,857.00 619.00,857.00              619.00,857.00 614.00,840.00 614.00,840.00              614.00,840.00 614.00,818.00 614.00,818.00              614.00,818.00 615.00,795.00 615.00,795.00              615.00,795.00 609.00,777.00 609.00,777.00              609.00,777.00 595.00,757.00 595.00,757.00              595.00,757.00 584.00,738.00 584.00,738.00              584.00,738.00 581.00,725.00 581.00,725.00              581.00,725.00 593.00,709.00 593.00,709.00              593.00,709.00 603.00,696.00 603.00,696.00              603.00,696.00 611.00,684.00 611.00,684.00              611.00,684.00 613.00,669.00 613.00,669.00              613.00,669.00 613.00,651.00 613.00,651.00              613.00,651.00 617.00,638.00 617.00,638.00              617.00,638.00 624.00,624.00 624.00,624.00              624.00,624.00 633.00,614.00 633.00,614.00              633.00,614.00 647.00,596.00 647.00,596.00              647.00,596.00 659.00,588.00 659.00,588.00              659.00,588.00 670.00,574.00 670.00,574.00              670.00,574.00 681.00,561.00 681.00,561.00              681.00,561.00 696.00,549.00 696.00,549.00              696.00,549.00 711.00,537.00 711.00,537.00              711.00,537.00 724.00,529.00 724.00,529.00              724.00,529.00 731.00,522.00 731.00,522.00              731.00,522.00 746.00,520.00 746.00,520.00              746.00,520.00 763.00,511.00 763.00,511.00              763.00,511.00 775.00,509.00 775.00,509.00              775.00,509.00 786.00,502.00 786.00,502.00              786.00,502.00 798.00,496.00 798.00,496.00              798.00,496.00 810.00,488.00 810.00,488.00              810.00,488.00 823.00,476.00 823.00,476.00              823.00,476.00 833.00,462.00 833.00,462.00              833.00,462.00 839.00,440.00 839.00,440.00              839.00,440.00 840.00,418.00 840.00,418.00              840.00,418.00 842.00,396.00 842.00,396.00              842.00,396.00 842.00,373.00 842.00,373.00              842.00,373.00 847.00,353.00 847.00,353.00              847.00,353.00 859.00,336.00 859.00,336.00              859.00,336.00 872.00,322.00 872.00,322.00              872.00,322.00 887.00,312.00 887.00,312.00              887.00,312.00 899.00,295.00 899.00,295.00              899.00,295.00 903.00,277.00 903.00,277.00              903.00,277.00 900.00,255.00 900.00,255.00              900.00,255.00 899.00,234.00 899.00,234.00              899.00,234.00 898.00,212.00 898.00,212.00              898.00,212.00 899.00,193.00 899.00,193.00              899.00,193.00 897.00,177.00 897.00,177.00              897.00,177.00 884.00,188.00 884.00,188.00              884.00,188.00 873.00,200.00 873.00,200.00              873.00,200.00 860.00,210.00 860.00,210.00              860.00,210.00 850.00,222.00 850.00,222.00              850.00,222.00 841.00,235.00 841.00,235.00              841.00,235.00 826.00,239.00 826.00,239.00              826.00,239.00 815.00,242.00 815.00,242.00M 853.00,444.00M 863.00,447.00            C 863.00,447.00 872.00,447.00 872.00,447.00              872.00,447.00 882.00,447.00 882.00,447.00              882.00,447.00 890.00,446.00 890.00,446.00              890.00,446.00 898.00,442.00 898.00,442.00              898.00,442.00 904.00,434.00 904.00,434.00              904.00,434.00 909.00,430.00 909.00,430.00"
   />
</svg>
