<?xml version="1.0" encoding="UTF-8" standalone="no"?>
<svg
   xmlns:dc="http://purl.org/dc/elements/1.1/"
   xmlns:cc="http://creativecommons.org/ns#"
   xmlns:rdf="http://www.w3.org/1999/02/22-rdf-syntax-ns#"
   xmlns:svg="http://www.w3.org/2000/svg"
   xmlns="http://www.w3.org/2000/svg"
   xmlns:sodipodi="http://sodipodi.sourceforge.net/DTD/sodipodi-0.dtd"
   xmlns:inkscape="http://www.inkscape.org/namespaces/inkscape"
   width="8.50667in"
   height="11.4333in"
   viewBox="0 0 1276 1715"
   id="svg2"
   version="1.1"
   inkscape:version="0.47pre1"
   sodipodi:docname="Z3F"
   inkscape:output_extension="org.inkscape.output.svg.inkscape">
  <metadata
     id="metadata9">
    <rdf:RDF>
      <cc:Work
         rdf:about="">
        <dc:format>image/svg+xml</dc:format>
        <dc:type
           rdf:resource="http://purl.org/dc/dcmitype/StillImage" />
        <dc:title></dc:title>
      </cc:Work>
    </rdf:RDF>
  </metadata>
  <defs
     id="defs7">
    <inkscape:perspective
       sodipodi:type="inkscape:persp3d"
       inkscape:vp_x="0 : 514.49847 : 1"
       inkscape:vp_y="0 : 1000 : 0"
       inkscape:vp_z="765.60028 : 514.49847 : 1"
       inkscape:persp3d-origin="382.80014 : 342.99898 : 1"
       id="perspective11" />
  </defs>
  <sodipodi:namedview
     pagecolor="#ffffff"
     bordercolor="#666666"
     borderopacity="1"
     objecttolerance="10"
     gridtolerance="10"
     guidetolerance="10"
     inkscape:pageopacity="0"
     inkscape:pageshadow="2"
     inkscape:window-width="640"
     inkscape:window-height="483"
     id="namedview5"
     showgrid="false"
     inkscape:zoom="0.22934956"
     inkscape:cx="382.80014"
     inkscape:cy="514.49847"
     inkscape:window-x="0"
     inkscape:window-y="0"
     inkscape:window-maximized="0"
     inkscape:current-layer="svg2" />
  <path
     id="Unnamed#4"
     fill="none"
     stroke="black"
     stroke-width="1"
     d="M 626.00,829.00            C 626.00,829.00 610.00,817.00 610.00,817.00              610.00,817.00 600.00,803.00 600.00,803.00              600.00,803.00 589.00,786.00 589.00,786.00M 533.00,881.00            C 533.00,881.00 521.00,866.00 521.00,866.00              521.00,866.00 514.00,853.00 514.00,853.00              514.00,853.00 510.00,838.00 510.00,838.00M 377.00,1072.00            C 377.00,1072.00 388.00,1057.00 388.00,1057.00M 1009.00,275.00            C 1009.00,275.00 995.00,278.00 995.00,278.00              995.00,278.00 983.00,283.00 983.00,283.00M 290.00,1073.00            C 287.42,1046.90 344.68,1040.51 347.00,1064.00              347.00,1064.00 350.00,1070.00 350.00,1070.00              350.00,1070.00 361.00,1077.00 361.00,1077.00              361.00,1077.00 371.00,1075.00 371.00,1075.00              371.00,1075.00 379.00,1070.00 379.00,1070.00M 389.00,1060.00            C 389.00,1060.00 391.00,1047.00 391.00,1047.00              391.00,1047.00 396.00,1033.00 396.00,1033.00              396.00,1033.00 407.00,1021.00 407.00,1021.00              407.00,1021.00 418.00,1021.00 418.00,1021.00              418.00,1021.00 430.00,1017.00 430.00,1017.00              430.00,1017.00 441.00,1008.00 441.00,1008.00              441.00,1008.00 444.00,995.00 444.00,995.00              444.00,995.00 448.00,981.00 448.00,981.00              448.00,981.00 455.00,969.00 455.00,969.00              455.00,969.00 464.00,964.00 464.00,964.00              464.00,964.00 478.00,955.00 478.00,955.00              478.00,955.00 487.00,948.00 487.00,948.00              487.00,948.00 496.00,934.00 496.00,934.00              496.00,934.00 496.00,920.00 496.00,920.00              496.00,920.00 496.00,901.00 496.00,901.00              496.00,901.00 503.00,889.00 503.00,889.00              503.00,889.00 516.00,883.00 516.00,883.00              516.00,883.00 532.00,881.00 532.00,881.00              532.00,881.00 544.00,878.00 544.00,878.00              544.00,878.00 557.00,875.00 557.00,875.00              557.00,875.00 574.00,871.00 574.00,871.00              574.00,871.00 585.00,858.00 585.00,858.00              585.00,858.00 598.00,843.00 598.00,843.00              598.00,843.00 614.00,832.00 614.00,832.00              614.00,832.00 630.00,832.00 630.00,832.00              630.00,832.00 640.00,829.00 640.00,829.00              640.00,829.00 650.00,815.00 650.00,815.00              650.00,815.00 660.00,807.00 660.00,807.00              660.00,807.00 671.00,808.00 671.00,808.00              671.00,808.00 678.00,811.00 678.00,811.00              678.00,811.00 688.00,821.00 688.00,821.00              688.00,821.00 695.00,829.00 695.00,829.00              695.00,829.00 704.00,838.00 704.00,838.00              704.00,838.00 714.00,838.00 714.00,838.00              714.00,838.00 725.00,838.00 725.00,838.00              725.00,838.00 735.00,830.00 735.00,830.00              735.00,830.00 750.00,823.00 750.00,823.00              750.00,823.00 764.00,820.00 764.00,820.00              764.00,820.00 776.00,809.00 776.00,809.00              776.00,809.00 793.00,801.00 793.00,801.00              793.00,801.00 801.00,790.00 801.00,790.00              801.00,790.00 802.00,775.00 802.00,775.00              802.00,775.00 802.00,761.00 802.00,761.00              802.00,761.00 808.00,748.00 808.00,748.00              808.00,748.00 817.00,728.00 817.00,728.00              817.00,728.00 824.00,713.00 824.00,713.00              824.00,713.00 835.00,700.00 835.00,700.00              835.00,700.00 844.00,682.00 844.00,682.00              844.00,682.00 844.00,664.00 844.00,664.00              844.00,664.00 849.00,644.00 849.00,644.00              849.00,644.00 859.00,625.00 859.00,625.00              859.00,625.00 874.00,612.00 874.00,612.00              874.00,612.00 884.00,598.00 884.00,598.00              884.00,598.00 893.00,589.00 893.00,589.00              893.00,589.00 904.00,594.00 904.00,594.00              904.00,594.00 912.00,600.00 912.00,600.00              912.00,600.00 923.00,601.00 923.00,601.00              923.00,601.00 929.00,587.00 929.00,587.00              929.00,587.00 939.00,574.00 939.00,574.00              939.00,574.00 949.00,574.00 949.00,574.00              949.00,574.00 960.00,581.00 960.00,581.00              960.00,581.00 970.00,584.00 970.00,584.00              970.00,584.00 985.00,584.00 985.00,584.00              985.00,584.00 999.00,572.00 999.00,572.00              999.00,572.00 1010.00,563.00 1010.00,563.00              1010.00,563.00 1019.00,554.00 1019.00,554.00              1019.00,554.00 1017.00,539.00 1017.00,539.00              1017.00,539.00 998.00,527.00 998.00,527.00              998.00,527.00 993.00,506.00 993.00,506.00              993.00,506.00 995.00,483.00 995.00,483.00              995.00,483.00 996.00,456.00 996.00,456.00              996.00,456.00 998.00,432.00 998.00,432.00              998.00,432.00 997.00,410.00 997.00,410.00              997.00,410.00 996.00,380.00 996.00,380.00              996.00,380.00 997.00,354.00 997.00,354.00              997.00,354.00 1003.00,337.00 1003.00,337.00              1003.00,337.00 1020.00,327.00 1020.00,327.00              1020.00,327.00 1029.00,316.00 1029.00,316.00              1029.00,316.00 1031.00,302.00 1031.00,302.00              1031.00,302.00 1022.00,288.00 1022.00,288.00              1022.00,288.00 1010.00,277.00 1010.00,277.00              1010.00,277.00 1027.00,269.00 1027.00,269.00              1027.00,269.00 1040.00,257.00 1040.00,257.00              1040.00,257.00 1047.00,240.00 1047.00,240.00              1047.00,240.00 1050.00,222.00 1050.00,222.00              1050.00,222.00 1043.00,198.00 1043.00,198.00              1043.00,198.00 1033.00,183.00 1033.00,183.00              1033.00,183.00 1015.00,173.00 1015.00,173.00              1015.00,173.00 996.00,173.00 996.00,173.00" />
</svg>
