<?xml version="1.0" encoding="UTF-8" standalone="no"?>
<svg
   xmlns:dc="http://purl.org/dc/elements/1.1/"
   xmlns:cc="http://creativecommons.org/ns#"
   xmlns:rdf="http://www.w3.org/1999/02/22-rdf-syntax-ns#"
   xmlns:svg="http://www.w3.org/2000/svg"
   xmlns="http://www.w3.org/2000/svg"
   xmlns:sodipodi="http://sodipodi.sourceforge.net/DTD/sodipodi-0.dtd"
   xmlns:inkscape="http://www.inkscape.org/namespaces/inkscape"
   width="8.50667in"
   height="11.44in"
   viewBox="0 0 1276 1716"
   id="svg2"
   version="1.1"
   inkscape:version="0.47pre1"
   sodipodi:docname="Z6F"
   inkscape:output_extension="org.inkscape.output.svg.inkscape">
  <metadata
     id="metadata9">
    <rdf:RDF>
      <cc:Work
         rdf:about="">
        <dc:format>image/svg+xml</dc:format>
        <dc:type
           rdf:resource="http://purl.org/dc/dcmitype/StillImage" />
        <dc:title></dc:title>
      </cc:Work>
    </rdf:RDF>
  </metadata>
  <defs
     id="defs7">
    <inkscape:perspective
       sodipodi:type="inkscape:persp3d"
       inkscape:vp_x="0 : 514.79999 : 1"
       inkscape:vp_y="0 : 1000 : 0"
       inkscape:vp_z="765.60028 : 514.79999 : 1"
       inkscape:persp3d-origin="382.80014 : 343.19999 : 1"
       id="perspective11" />
  </defs>
  <sodipodi:namedview
     pagecolor="#ffffff"
     bordercolor="#666666"
     borderopacity="1"
     objecttolerance="10"
     gridtolerance="10"
     guidetolerance="10"
     inkscape:pageopacity="0"
     inkscape:pageshadow="2"
     inkscape:window-width="640"
     inkscape:window-height="483"
     id="namedview5"
     showgrid="false"
     inkscape:zoom="0.22921523"
     inkscape:cx="382.80014"
     inkscape:cy="514.79999"
     inkscape:window-x="0"
     inkscape:window-y="0"
     inkscape:window-maximized="0"
     inkscape:current-layer="svg2" />
  <path
     id="Unnamed#2"
     fill="none"
     stroke="black"
     stroke-width="1"
     d="M 734.00,504.00            C 734.00,504.00 711.00,494.00 711.00,494.00              711.00,494.00 691.00,480.00 691.00,480.00              691.00,480.00 676.00,464.00 676.00,464.00              676.00,464.00 664.00,448.00 664.00,448.00              664.00,448.00 658.00,430.00 658.00,430.00              658.00,430.00 656.00,408.00 656.00,408.00              656.00,408.00 660.00,387.00 660.00,387.00              660.00,387.00 668.00,377.00 668.00,377.00              668.00,377.00 685.00,369.00 685.00,369.00              685.00,369.00 698.00,356.00 698.00,356.00              698.00,356.00 709.00,350.00 709.00,350.00              709.00,350.00 719.00,338.00 719.00,338.00              719.00,338.00 725.00,322.00 725.00,322.00              725.00,322.00 728.00,304.00 728.00,304.00              728.00,304.00 729.00,287.00 729.00,287.00              729.00,287.00 726.00,273.00 726.00,273.00              726.00,273.00 721.00,262.00 721.00,262.00M 578.00,946.00            C 578.00,946.00 572.00,960.00 572.00,960.00              572.00,960.00 568.00,977.00 568.00,977.00              568.00,977.00 569.00,992.00 569.00,992.00              569.00,992.00 573.00,1009.00 573.00,1009.00              573.00,1009.00 580.00,1019.00 580.00,1019.00              580.00,1019.00 590.00,1027.00 590.00,1027.00              590.00,1027.00 609.00,1033.00 609.00,1033.00              609.00,1033.00 627.00,1039.00 627.00,1039.00              627.00,1039.00 650.00,1044.00 650.00,1044.00              650.00,1044.00 671.00,1045.00 671.00,1045.00              671.00,1045.00 689.00,1045.00 689.00,1045.00              689.00,1045.00 706.00,1049.00 706.00,1049.00              706.00,1049.00 722.00,1055.00 722.00,1055.00              722.00,1055.00 739.00,1058.00 739.00,1058.00              739.00,1058.00 752.00,1067.00 752.00,1067.00              752.00,1067.00 765.00,1079.00 765.00,1079.00              765.00,1079.00 768.00,1090.00 768.00,1090.00              768.00,1090.00 763.00,1101.00 763.00,1101.00              763.00,1101.00 754.00,1107.00 754.00,1107.00              754.00,1107.00 743.00,1107.00 743.00,1107.00              743.00,1107.00 730.00,1099.00 730.00,1099.00              730.00,1099.00 717.00,1089.00 717.00,1089.00              717.00,1089.00 705.00,1083.00 705.00,1083.00              705.00,1083.00 692.00,1083.00 692.00,1083.00              692.00,1083.00 676.00,1079.00 676.00,1079.00              676.00,1079.00 666.00,1073.00 666.00,1073.00              666.00,1073.00 662.00,1063.00 662.00,1063.00              662.00,1063.00 669.00,1054.00 669.00,1054.00M 217.00,865.00            C 217.00,865.00 232.00,868.00 232.00,868.00              232.00,868.00 247.00,871.00 247.00,871.00              247.00,871.00 263.00,871.00 263.00,871.00              263.00,871.00 278.00,870.00 278.00,870.00              278.00,870.00 289.00,867.00 289.00,867.00              289.00,867.00 301.00,860.00 301.00,860.00              301.00,860.00 315.00,854.00 315.00,854.00              315.00,854.00 328.00,845.00 328.00,845.00              328.00,845.00 344.00,840.00 344.00,840.00              344.00,840.00 359.00,835.00 359.00,835.00              359.00,835.00 372.00,838.00 372.00,838.00              372.00,838.00 386.00,840.00 386.00,840.00              386.00,840.00 400.00,847.00 400.00,847.00              400.00,847.00 410.00,855.00 410.00,855.00              410.00,855.00 419.00,867.00 419.00,867.00              419.00,867.00 420.00,881.00 420.00,881.00              420.00,881.00 418.00,896.00 418.00,896.00              418.00,896.00 418.00,911.00 418.00,911.00              418.00,911.00 427.00,922.00 427.00,922.00              427.00,922.00 439.00,931.00 439.00,931.00              439.00,931.00 453.00,937.00 453.00,937.00              453.00,937.00 468.00,943.00 468.00,943.00              468.00,943.00 485.00,950.00 485.00,950.00              485.00,950.00 503.00,955.00 503.00,955.00              503.00,955.00 519.00,957.00 519.00,957.00              519.00,957.00 537.00,954.00 537.00,954.00              537.00,954.00 552.00,950.00 552.00,950.00              552.00,950.00 564.00,948.00 564.00,948.00              564.00,948.00 579.00,946.00 579.00,946.00              579.00,946.00 583.00,930.00 583.00,930.00              583.00,930.00 582.00,911.00 582.00,911.00              582.00,911.00 586.00,896.00 586.00,896.00              586.00,896.00 587.00,880.00 587.00,880.00              587.00,880.00 590.00,866.00 590.00,866.00              590.00,866.00 597.00,851.00 597.00,851.00              597.00,851.00 602.00,838.00 602.00,838.00              602.00,838.00 598.00,823.00 598.00,823.00              598.00,823.00 587.00,807.00 587.00,807.00              587.00,807.00 587.00,790.00 587.00,790.00              587.00,790.00 590.00,775.00 590.00,775.00              590.00,775.00 599.00,760.00 599.00,760.00              599.00,760.00 609.00,743.00 609.00,743.00              609.00,743.00 621.00,733.00 621.00,733.00              621.00,733.00 631.00,716.00 631.00,716.00              631.00,716.00 639.00,706.00 639.00,706.00              639.00,706.00 635.00,689.00 635.00,689.00              635.00,689.00 633.00,674.00 633.00,674.00              633.00,674.00 635.00,661.00 635.00,661.00              635.00,661.00 643.00,641.00 643.00,641.00              643.00,641.00 650.00,627.00 650.00,627.00              650.00,627.00 659.00,618.00 659.00,618.00              659.00,618.00 672.00,606.00 672.00,606.00              672.00,606.00 684.00,594.00 684.00,594.00              684.00,594.00 694.00,583.00 694.00,583.00              694.00,583.00 704.00,567.00 704.00,567.00              704.00,567.00 715.00,556.00 715.00,556.00              715.00,556.00 722.00,542.00 722.00,542.00              722.00,542.00 729.00,524.00 729.00,524.00              729.00,524.00 733.00,503.00 733.00,503.00              733.00,503.00 747.00,508.00 747.00,508.00              747.00,508.00 763.00,511.00 763.00,511.00              763.00,511.00 776.00,516.00 776.00,516.00              776.00,516.00 792.00,520.00 792.00,520.00              792.00,520.00 808.00,522.00 808.00,522.00              808.00,522.00 818.00,528.00 818.00,528.00              818.00,528.00 833.00,536.00 833.00,536.00              833.00,536.00 849.00,538.00 849.00,538.00              849.00,538.00 865.00,538.00 865.00,538.00              865.00,538.00 878.00,537.00 878.00,537.00              878.00,537.00 894.00,532.00 894.00,532.00              894.00,532.00 909.00,529.00 909.00,529.00              909.00,529.00 926.00,531.00 926.00,531.00              926.00,531.00 941.00,534.00 941.00,534.00              941.00,534.00 954.00,540.00 954.00,540.00              954.00,540.00 969.00,545.00 969.00,545.00              969.00,545.00 984.00,544.00 984.00,544.00              984.00,544.00 1000.00,533.00 1000.00,533.00              1000.00,533.00 1014.00,527.00 1014.00,527.00              1014.00,527.00 1029.00,523.00 1029.00,523.00              1029.00,523.00 1044.00,523.00 1044.00,523.00              1044.00,523.00 1059.00,523.00 1059.00,523.00              1059.00,523.00 1072.00,523.00 1072.00,523.00" />
</svg>
