<?xml version="1.0" encoding="UTF-8" standalone="no"?>
<svg xmlns:dc="http://purl.org/dc/elements/1.1/" xmlns:cc="http://creativecommons.org/ns#"
   xmlns:rdf="http://www.w3.org/1999/02/22-rdf-syntax-ns#" xmlns:svg="http://www.w3.org/2000/svg"
   xmlns="http://www.w3.org/2000/svg"
   xmlns:sodipodi="http://sodipodi.sourceforge.net/DTD/sodipodi-0.dtd"
   xmlns:inkscape="http://www.inkscape.org/namespaces/inkscape" width="8.50667in" height="11.4867in"
   viewBox="0 0 1276 1723" id="svg2" version="1.1" inkscape:version="0.47pre1"
   sodipodi:docname="Z7F" inkscape:output_extension="org.inkscape.output.svg.inkscape">
   <metadata id="metadata9">
      <rdf:RDF>
         <cc:Work rdf:about="">
            <dc:format>image/svg+xml</dc:format>
            <dc:type rdf:resource="http://purl.org/dc/dcmitype/StillImage"/>
            <dc:title/>
         </cc:Work>
      </rdf:RDF>
   </metadata>
   <defs id="defs7">
      <inkscape:perspective sodipodi:type="inkscape:persp3d" inkscape:vp_x="0 : 516.90149 : 1"
         inkscape:vp_y="0 : 1000 : 0" inkscape:vp_z="765.60028 : 516.90149 : 1"
         inkscape:persp3d-origin="382.80014 : 344.60099 : 1" id="perspective11"/>
   </defs>
   <sodipodi:namedview pagecolor="#ffffff" bordercolor="#666666" borderopacity="1"
      objecttolerance="10" gridtolerance="10" guidetolerance="10" inkscape:pageopacity="0"
      inkscape:pageshadow="2" inkscape:window-width="640" inkscape:window-height="483"
      id="namedview5" showgrid="false" inkscape:zoom="0.22828334" inkscape:cx="382.80014"
      inkscape:cy="516.90149" inkscape:window-x="0" inkscape:window-y="0"
      inkscape:window-maximized="0" inkscape:current-layer="svg2"/>
   <path id="Unnamed#3" fill="none" stroke="black" stroke-width="1"
      d="M 1029.00,191.00            C 1029.00,191.00 1017.00,186.00 1017.00,186.00              1017.00,186.00 1005.00,183.00 1005.00,183.00M 283.00,534.00            C 283.00,534.00 275.00,546.00 275.00,546.00              275.00,546.00 266.00,555.00 266.00,555.00              266.00,555.00 259.00,565.00 259.00,565.00              259.00,565.00 250.00,576.00 250.00,576.00M 402.00,689.00            C 402.00,689.00 387.00,682.00 387.00,682.00              387.00,682.00 373.00,681.00 373.00,681.00              373.00,681.00 359.00,676.00 359.00,676.00              359.00,676.00 345.00,669.00 345.00,669.00              345.00,669.00 335.00,664.00 335.00,664.00              335.00,664.00 328.00,649.00 328.00,649.00              328.00,649.00 328.00,631.00 328.00,631.00              328.00,631.00 326.00,617.00 326.00,617.00              326.00,617.00 319.00,600.00 319.00,600.00              319.00,600.00 307.00,587.00 307.00,587.00              307.00,587.00 298.00,578.00 298.00,578.00              298.00,578.00 291.00,562.00 291.00,562.00              291.00,562.00 286.00,545.00 286.00,545.00              286.00,545.00 282.00,523.00 282.00,523.00              282.00,523.00 283.00,508.00 283.00,508.00              283.00,508.00 290.00,492.00 290.00,492.00              290.00,492.00 303.00,480.00 303.00,480.00              303.00,480.00 318.00,466.00 318.00,466.00              318.00,466.00 333.00,455.00 333.00,455.00              333.00,455.00 352.00,448.00 352.00,448.00              352.00,448.00 363.00,446.00 363.00,446.00              363.00,446.00 378.00,450.00 378.00,450.00              378.00,450.00 396.00,451.00 396.00,451.00              396.00,451.00 411.00,449.00 411.00,449.00              411.00,449.00 420.00,441.00 420.00,441.00              420.00,441.00 424.00,420.00 424.00,420.00              424.00,420.00 420.00,400.00 420.00,400.00              420.00,400.00 416.00,385.00 416.00,385.00              416.00,385.00 409.00,367.00 409.00,367.00              409.00,367.00 394.00,358.00 394.00,358.00              394.00,358.00 377.00,351.00 377.00,351.00              377.00,351.00 364.00,341.00 364.00,341.00              364.00,341.00 349.00,330.00 349.00,330.00              349.00,330.00 333.00,317.00 333.00,317.00              333.00,317.00 316.00,306.00 316.00,306.00              316.00,306.00 299.00,304.00 299.00,304.00              299.00,304.00 278.00,300.00 278.00,300.00              278.00,300.00 259.00,299.00 259.00,299.00              259.00,299.00 240.00,291.00 240.00,291.00              240.00,291.00 224.00,280.00 224.00,280.00              224.00,280.00 215.00,264.00 215.00,264.00              215.00,264.00 207.00,247.00 207.00,247.00              207.00,247.00 207.00,225.00 207.00,225.00              207.00,225.00 213.00,207.00 213.00,207.00              213.00,207.00 227.00,196.00 227.00,196.00              227.00,196.00 241.00,186.00 241.00,186.00              241.00,186.00 260.00,186.00 260.00,186.00              260.00,186.00 276.00,184.00 276.00,184.00              276.00,184.00 290.00,186.00 290.00,186.00              290.00,186.00 303.00,187.00 303.00,187.00M 385.00,1230.00            C 385.00,1230.00 392.00,1218.00 392.00,1218.00              392.00,1218.00 392.00,1206.00 392.00,1206.00              392.00,1206.00 387.00,1190.00 387.00,1190.00              387.00,1190.00 385.00,1177.00 385.00,1177.00              385.00,1177.00 381.00,1160.00 381.00,1160.00              381.00,1160.00 376.00,1143.00 376.00,1143.00              376.00,1143.00 370.00,1125.00 370.00,1125.00              370.00,1125.00 367.00,1110.00 367.00,1110.00              367.00,1110.00 367.00,1090.00 367.00,1090.00              367.00,1090.00 368.00,1072.00 368.00,1072.00              368.00,1072.00 366.00,1059.00 366.00,1059.00              366.00,1059.00 369.00,1044.00 369.00,1044.00              369.00,1044.00 373.00,1024.00 373.00,1024.00              373.00,1024.00 379.00,1005.00 379.00,1005.00              379.00,1005.00 387.00,990.00 387.00,990.00              387.00,990.00 393.00,972.00 393.00,972.00              393.00,972.00 397.00,956.00 397.00,956.00              397.00,956.00 393.00,940.00 393.00,940.00              393.00,940.00 385.00,923.00 385.00,923.00              385.00,923.00 377.00,910.00 377.00,910.00              377.00,910.00 372.00,897.00 372.00,897.00              372.00,897.00 376.00,881.00 376.00,881.00              376.00,881.00 377.00,865.00 377.00,865.00              377.00,865.00 370.00,845.00 370.00,845.00              370.00,845.00 368.00,824.00 368.00,824.00              368.00,824.00 366.00,808.00 366.00,808.00              366.00,808.00 366.00,790.00 366.00,790.00              366.00,790.00 369.00,771.00 369.00,771.00              369.00,771.00 377.00,755.00 377.00,755.00              377.00,755.00 390.00,744.00 390.00,744.00              390.00,744.00 407.00,736.00 407.00,736.00              407.00,736.00 420.00,731.00 420.00,731.00              420.00,731.00 428.00,716.00 428.00,716.00              428.00,716.00 424.00,704.00 424.00,704.00              424.00,704.00 411.00,695.00 411.00,695.00              411.00,695.00 400.00,690.00 400.00,690.00              400.00,690.00 416.00,686.00 416.00,686.00              416.00,686.00 428.00,680.00 428.00,680.00              428.00,680.00 444.00,675.00 444.00,675.00              444.00,675.00 453.00,667.00 453.00,667.00              453.00,667.00 465.00,656.00 465.00,656.00              465.00,656.00 481.00,653.00 481.00,653.00              481.00,653.00 497.00,652.00 497.00,652.00              497.00,652.00 512.00,650.00 512.00,650.00              512.00,650.00 528.00,651.00 528.00,651.00              528.00,651.00 538.00,652.00 538.00,652.00              538.00,652.00 549.00,652.00 549.00,652.00              549.00,652.00 562.00,646.00 562.00,646.00              562.00,646.00 577.00,638.00 577.00,638.00              577.00,638.00 586.00,633.00 586.00,633.00              586.00,633.00 599.00,630.00 599.00,630.00              599.00,630.00 616.00,628.00 616.00,628.00              616.00,628.00 629.00,629.00 629.00,629.00              629.00,629.00 636.00,625.00 636.00,625.00              636.00,625.00 646.00,617.00 646.00,617.00              646.00,617.00 657.00,615.00 657.00,615.00              657.00,615.00 670.00,619.00 670.00,619.00              670.00,619.00 682.00,625.00 682.00,625.00              682.00,625.00 696.00,629.00 696.00,629.00              696.00,629.00 714.00,629.00 714.00,629.00              714.00,629.00 728.00,629.00 728.00,629.00              728.00,629.00 744.00,630.00 744.00,630.00              744.00,630.00 757.00,631.00 757.00,631.00              757.00,631.00 771.00,633.00 771.00,633.00              771.00,633.00 782.00,631.00 782.00,631.00              782.00,631.00 794.00,623.00 794.00,623.00              794.00,623.00 804.00,611.00 804.00,611.00              804.00,611.00 814.00,599.00 814.00,599.00              814.00,599.00 825.00,584.00 825.00,584.00              825.00,584.00 835.00,580.00 835.00,580.00              835.00,580.00 853.00,585.00 853.00,585.00              853.00,585.00 871.00,588.00 871.00,588.00              871.00,588.00 885.00,589.00 885.00,589.00              885.00,589.00 898.00,586.00 898.00,586.00              898.00,586.00 911.00,576.00 911.00,576.00              911.00,576.00 922.00,561.00 922.00,561.00              922.00,561.00 931.00,545.00 931.00,545.00              931.00,545.00 938.00,532.00 938.00,532.00              938.00,532.00 946.00,527.00 946.00,527.00              946.00,527.00 958.00,520.00 958.00,520.00              958.00,520.00 973.00,515.00 973.00,515.00              973.00,515.00 985.00,506.00 985.00,506.00              985.00,506.00 990.00,494.00 990.00,494.00              990.00,494.00 997.00,481.00 997.00,481.00              997.00,481.00 1010.00,474.00 1010.00,474.00              1010.00,474.00 1025.00,472.00 1025.00,472.00              1025.00,472.00 1040.00,472.00 1040.00,472.00              1040.00,472.00 1057.00,472.00 1057.00,472.00              1057.00,472.00 1072.00,461.00 1072.00,461.00              1072.00,461.00 1085.00,451.00 1085.00,451.00              1085.00,451.00 1092.00,435.00 1092.00,435.00              1092.00,435.00 1092.00,418.00 1092.00,418.00              1092.00,418.00 1098.00,406.00 1098.00,406.00              1098.00,406.00 1100.00,390.00 1100.00,390.00              1100.00,390.00 1095.00,370.00 1095.00,370.00              1095.00,370.00 1090.00,356.00 1090.00,356.00              1090.00,356.00 1074.00,347.00 1074.00,347.00              1074.00,347.00 1057.00,335.00 1057.00,335.00              1057.00,335.00 1041.00,324.00 1041.00,324.00              1041.00,324.00 1030.00,309.00 1030.00,309.00              1030.00,309.00 1023.00,285.00 1023.00,285.00              1023.00,285.00 1023.00,268.00 1023.00,268.00              1023.00,268.00 1024.00,249.00 1024.00,249.00              1024.00,249.00 1033.00,233.00 1033.00,233.00              1033.00,233.00 1034.00,217.00 1034.00,217.00              1034.00,217.00 1030.00,204.00 1030.00,204.00              1030.00,204.00 1029.00,191.00 1029.00,191.00              1029.00,191.00 1040.00,187.00 1040.00,187.00              1040.00,187.00 1048.00,188.00 1048.00,188.00              1048.00,188.00 1056.00,192.00 1056.00,192.00"
   />
</svg>
